<svg width="42" height="42" viewBox="0 0 42 42" fill="none" xmlns="http://www.w3.org/2000/svg">
<path d="M29.2992 28.9211V22.7841C29.2992 19.4961 27.5442 17.9661 25.2032 17.9661C23.3142 17.9661 22.4682 19.0051 21.9972 19.7341V18.2171H18.4392C18.4862 19.2221 18.4392 28.9211 18.4392 28.9211H21.9972V22.9431C21.9972 22.6241 22.0202 22.3041 22.1142 22.0761C22.3712 21.4371 22.9562 20.7751 23.9392 20.7751C25.2272 20.7751 25.7422 21.7561 25.7422 23.1951V28.9221L29.2992 28.9211ZM14.6902 16.7561C15.9302 16.7561 16.7032 15.9331 16.7032 14.9061C16.6802 13.8561 15.9302 13.0571 14.7132 13.0571C13.4962 13.0571 12.7012 13.8561 12.7012 14.9061C12.7012 15.9341 13.4732 16.7561 14.6682 16.7561H14.6902ZM16.4692 28.9211V18.2171H12.9122V28.9211H16.4692Z" fill="white"/>
<rect x="1" y="1" width="40" height="40" stroke="white"/>
</svg>
