<svg width="42" height="42" viewBox="0 0 42 42" fill="none" xmlns="http://www.w3.org/2000/svg">
<path d="M25.4503 15.5498C25.2525 15.5498 25.0592 15.6085 24.8948 15.7184C24.7303 15.8282 24.6021 15.9844 24.5264 16.1672C24.4508 16.3499 24.431 16.5509 24.4695 16.7449C24.5081 16.9389 24.6034 17.1171 24.7432 17.2569C24.8831 17.3968 25.0613 17.492 25.2552 17.5306C25.4492 17.5692 25.6503 17.5494 25.833 17.4737C26.0157 17.398 26.1719 17.2699 26.2818 17.1054C26.3917 16.941 26.4503 16.7476 26.4503 16.5498C26.4503 16.2846 26.345 16.0303 26.1574 15.8427C25.9699 15.6552 25.7155 15.5498 25.4503 15.5498ZM29.2837 17.5665C29.2675 16.8751 29.138 16.191 28.9003 15.5415C28.6884 14.9858 28.3586 14.4826 27.9337 14.0665C27.521 13.6394 27.0166 13.3117 26.4587 13.1082C25.8109 12.8633 25.126 12.7308 24.4337 12.7165C23.5503 12.6665 23.267 12.6665 21.0003 12.6665C18.7337 12.6665 18.4503 12.6665 17.567 12.7165C16.8746 12.7308 16.1898 12.8633 15.542 13.1082C14.9851 13.3137 14.4811 13.6411 14.067 14.0665C13.6398 14.4792 13.3121 14.9835 13.1087 15.5415C12.8638 16.1893 12.7313 16.8741 12.717 17.5665C12.667 18.4498 12.667 18.7332 12.667 20.9998C12.667 23.2665 12.667 23.5498 12.717 24.4332C12.7313 25.1255 12.8638 25.8104 13.1087 26.4582C13.3121 27.0161 13.6398 27.5205 14.067 27.9332C14.4811 28.3585 14.9851 28.686 15.542 28.8915C16.1898 29.1364 16.8746 29.2688 17.567 29.2832C18.4503 29.3332 18.7337 29.3332 21.0003 29.3332C23.267 29.3332 23.5503 29.3332 24.4337 29.2832C25.126 29.2688 25.8109 29.1364 26.4587 28.8915C27.0166 28.688 27.521 28.3603 27.9337 27.9332C28.3605 27.5187 28.6906 27.015 28.9003 26.4582C29.138 25.8087 29.2675 25.1246 29.2837 24.4332C29.2837 23.5498 29.3337 23.2665 29.3337 20.9998C29.3337 18.7332 29.3337 18.4498 29.2837 17.5665ZM27.7837 24.3332C27.7776 24.8621 27.6818 25.3863 27.5003 25.8832C27.3673 26.2458 27.1536 26.5735 26.8753 26.8415C26.605 27.1169 26.278 27.3302 25.917 27.4665C25.4201 27.648 24.896 27.7438 24.367 27.7498C23.5337 27.7915 23.2253 27.7998 21.0337 27.7998C18.842 27.7998 18.5337 27.7998 17.7003 27.7498C17.1511 27.7601 16.6042 27.6755 16.0837 27.4998C15.7385 27.3566 15.4265 27.1438 15.167 26.8748C14.8904 26.6071 14.6794 26.2792 14.5503 25.9165C14.3469 25.4125 14.234 24.8765 14.217 24.3332C14.217 23.4998 14.167 23.1915 14.167 20.9998C14.167 18.8082 14.167 18.4998 14.217 17.6665C14.2207 17.1257 14.3195 16.5898 14.5087 16.0832C14.6554 15.7314 14.8805 15.4179 15.167 15.1665C15.4202 14.88 15.7331 14.6524 16.0837 14.4998C16.5916 14.3165 17.127 14.2207 17.667 14.2165C18.5003 14.2165 18.8087 14.1665 21.0003 14.1665C23.192 14.1665 23.5003 14.1665 24.3337 14.2165C24.8626 14.2226 25.3867 14.3184 25.8837 14.4998C26.2624 14.6404 26.6022 14.8689 26.8753 15.1665C27.1484 15.4225 27.3618 15.7354 27.5003 16.0832C27.6855 16.5906 27.7814 17.1263 27.7837 17.6665C27.8253 18.4998 27.8337 18.8082 27.8337 20.9998C27.8337 23.1915 27.8253 23.4998 27.7837 24.3332ZM21.0003 16.7248C20.1552 16.7265 19.3295 16.9786 18.6275 17.4494C17.9256 17.9201 17.379 18.5883 17.0567 19.3696C16.7344 20.1509 16.6509 21.0102 16.8168 21.8389C16.9827 22.6677 17.3905 23.4286 17.9887 24.0257C18.5869 24.6227 19.3487 25.029 20.1777 25.1933C21.0067 25.3576 21.8659 25.2724 22.6465 24.9486C23.4272 24.6248 24.0944 24.0769 24.5638 23.374C25.0331 22.6712 25.2837 21.845 25.2837 20.9998C25.2848 20.4374 25.1747 19.8803 24.9597 19.3606C24.7447 18.8409 24.4291 18.3688 24.031 17.9715C23.633 17.5742 23.1603 17.2596 22.6402 17.0456C22.12 16.8317 21.5627 16.7226 21.0003 16.7248ZM21.0003 23.7748C20.4515 23.7748 19.915 23.6121 19.4586 23.3072C19.0023 23.0022 18.6466 22.5688 18.4366 22.0618C18.2265 21.5547 18.1716 20.9968 18.2786 20.4585C18.3857 19.9202 18.65 19.4257 19.0381 19.0376C19.4262 18.6495 19.9207 18.3852 20.459 18.2782C20.9972 18.1711 21.5552 18.226 22.0623 18.4361C22.5693 18.6461 23.0027 19.0018 23.3077 19.4581C23.6126 19.9145 23.7753 20.451 23.7753 20.9998C23.7753 21.3643 23.7035 21.7251 23.5641 22.0618C23.4246 22.3985 23.2202 22.7044 22.9625 22.9621C22.7049 23.2197 22.399 23.4241 22.0623 23.5636C21.7256 23.7031 21.3647 23.7748 21.0003 23.7748Z" fill="white"/>
<rect x="1" y="1" width="40" height="40" stroke="white"/>
</svg>
