<svg width="42" height="42" viewBox="0 0 42 42" fill="none" xmlns="http://www.w3.org/2000/svg">
<path d="M29.3337 15.8335C28.7073 16.1053 28.0448 16.2849 27.367 16.3668C28.0821 15.9396 28.6181 15.2675 28.8753 14.4752C28.2033 14.8752 27.4676 15.1571 26.7003 15.3085C26.1874 14.7523 25.5045 14.3821 24.7585 14.2559C24.0125 14.1297 23.2458 14.2546 22.5785 14.6112C21.9112 14.9677 21.3811 15.5356 21.0714 16.2259C20.7616 16.9161 20.6897 17.6897 20.867 18.4252C19.5082 18.3564 18.179 18.0026 16.9659 17.3867C15.7527 16.7708 14.6827 15.9066 13.8253 14.8502C13.5246 15.3753 13.3666 15.97 13.367 16.5752C13.3659 17.1372 13.5038 17.6907 13.7685 18.1865C14.0331 18.6823 14.4162 19.1049 14.8837 19.4168C14.3403 19.4021 13.8086 19.2563 13.3337 18.9918V19.0335C13.3377 19.8209 13.6137 20.5828 14.1148 21.1901C14.6159 21.7975 15.3114 22.2132 16.0837 22.3668C15.7864 22.4573 15.4777 22.505 15.167 22.5085C14.9519 22.506 14.7373 22.4865 14.5253 22.4502C14.7453 23.1275 15.1708 23.7195 15.7429 24.1436C16.3149 24.5678 17.005 24.8031 17.717 24.8168C16.5147 25.7629 15.0302 26.2792 13.5003 26.2835C13.2218 26.2844 12.9434 26.2677 12.667 26.2335C14.229 27.2421 16.0493 27.7774 17.9087 27.7752C19.1917 27.7885 20.4646 27.546 21.6529 27.0619C22.8412 26.5778 23.9212 25.8617 24.8297 24.9556C25.7381 24.0494 26.457 22.9713 26.9441 21.7843C27.4313 20.5972 27.677 19.3249 27.667 18.0418C27.667 17.9002 27.667 17.7502 27.667 17.6002C28.3209 17.1125 28.8849 16.5147 29.3337 15.8335Z" fill="white"/>
<rect x="1" y="1" width="40" height="40" stroke="white"/>
</svg>
