<svg width="42" height="42" viewBox="0 0 42 42" fill="none" xmlns="http://www.w3.org/2000/svg">
<g clip-path="url(#clip0_340_1248)">
<path d="M27.462 9.17312V12.9811H25.197C25.118 12.9701 25.026 12.9641 24.933 12.9641C24.391 12.9641 23.897 13.1671 23.522 13.5021L23.524 13.5001C23.249 13.8841 23.085 14.3631 23.085 14.8811C23.085 14.9431 23.087 15.0051 23.092 15.0661V15.0581V17.7841H27.321L26.761 22.0541H23.098V33.0001H18.681V22.0531H15.001V17.7841H18.681V14.6391C18.674 14.5371 18.67 14.4171 18.67 14.2971C18.67 12.8191 19.245 11.4751 20.183 10.4771L20.18 10.4801C21.152 9.56012 22.468 8.99512 23.915 8.99512C24.005 8.99512 24.095 8.99712 24.185 9.00212H24.172C24.29 9.00012 24.428 8.99912 24.567 8.99912C25.587 8.99912 26.592 9.06312 27.578 9.18712L27.461 9.17512L27.462 9.17312Z" fill="white"/>
</g>
<rect x="1" y="1" width="40" height="40" stroke="white"/>
<defs>
<clipPath id="clip0_340_1248">
<rect width="12" height="24" fill="white" transform="translate(15 9)"/>
</clipPath>
</defs>
</svg>
