<svg width="80" height="80" viewBox="0 0 80 80" fill="none" xmlns="http://www.w3.org/2000/svg">
<path d="M40 45C28.2825 45 18.75 35.4675 18.75 23.75C18.75 12.0325 28.2825 2.5 40 2.5C51.7175 2.5 61.25 12.0325 61.25 23.75C61.25 35.4675 51.7175 45 40 45ZM40 5C29.6613 5 21.25 13.4113 21.25 23.75C21.25 34.0887 29.6613 42.5 40 42.5C50.3387 42.5 58.75 34.0887 58.75 23.75C58.75 13.4113 50.3387 5 40 5Z" fill="#D35400"/>
<path d="M58.2355 16.77C57.952 16.7701 57.6769 16.6738 57.4554 16.497C57.2338 16.3202 57.079 16.0733 57.0162 15.7969C56.9534 15.5204 56.9864 15.2309 57.1099 14.9757C57.2333 14.7205 57.4398 14.5149 57.6955 14.3925C58.7574 13.8798 59.6537 13.0789 60.2823 12.0812C60.9109 11.0835 61.2464 9.92919 61.2505 8.75C61.2505 5.30375 58.4467 2.5 55.0005 2.5C53.8211 2.50405 52.6667 2.83965 51.6689 3.46848C50.6712 4.09731 49.8704 4.99403 49.358 6.05625C49.2077 6.34337 48.952 6.56101 48.6445 6.66336C48.3371 6.76572 48.0019 6.74481 47.7096 6.60503C47.4172 6.46526 47.1905 6.21752 47.0771 5.91396C46.9638 5.6104 46.9726 5.27469 47.1017 4.9775C47.8194 3.49089 48.9406 2.23595 50.3372 1.35585C51.7338 0.475748 53.3497 0.00593189 55.0005 0C59.8242 0 63.7505 3.92625 63.7505 8.75C63.7447 10.4005 63.2751 12.0161 62.3952 13.4126C61.5153 14.809 60.2606 15.9299 58.7742 16.6475C58.6061 16.7283 58.422 16.7702 58.2355 16.77Z" fill="#D35400"/>
<path d="M56.36 13.495C56.0683 13.4955 55.7856 13.3939 55.5609 13.2079C55.3362 13.0218 55.1837 12.7631 55.1297 12.4764C55.0757 12.1898 55.1236 11.8933 55.2652 11.6382C55.4068 11.3832 55.6331 11.1857 55.905 11.08C56.3733 10.8956 56.7756 10.575 57.0599 10.1597C57.3442 9.74434 57.4975 9.25332 57.5 8.75C57.5 7.37125 56.3787 6.25 55 6.25C53.98 6.25 53.0425 6.89125 52.67 7.84375C52.5492 8.15256 52.3106 8.40072 52.0068 8.53364C51.703 8.66655 51.3588 8.67334 51.05 8.5525C50.7412 8.43166 50.493 8.1931 50.3601 7.88929C50.2272 7.58548 50.2204 7.24131 50.3412 6.9325C50.7042 5.99271 51.344 5.18526 52.1759 4.61698C53.0077 4.04871 53.9925 3.74638 55 3.75C57.7575 3.75 60 5.9925 60 8.75C59.9955 9.75624 59.6895 10.738 59.1216 11.5687C58.5536 12.3993 57.7498 13.0407 56.8138 13.41C56.669 13.4661 56.5152 13.4949 56.36 13.495ZM21.765 16.77C21.5785 16.7703 21.3943 16.7284 21.2263 16.6475C19.7399 15.9299 18.4852 14.809 17.6053 13.4126C16.7254 12.0161 16.2558 10.4005 16.25 8.75C16.25 3.92625 20.1762 0 25 0C26.6505 0.00575929 28.2661 0.475379 29.6626 1.35527C31.059 2.23516 32.1799 3.48988 32.8975 4.97625C33.0266 5.27344 33.0355 5.60915 32.9221 5.91271C32.8087 6.21627 32.582 6.46401 32.2896 6.60378C31.9973 6.74356 31.6621 6.76447 31.3547 6.66211C31.0472 6.55976 30.7915 6.34212 30.6413 6.055C30.1289 4.99311 29.3282 4.0967 28.3307 3.46809C27.3332 2.83949 26.179 2.50402 25 2.5C21.5538 2.5 18.75 5.30375 18.75 8.75C18.7541 9.92936 19.0897 11.0838 19.7185 12.0815C20.3473 13.0793 21.244 13.8801 22.3062 14.3925C22.5609 14.5158 22.7663 14.7217 22.8888 14.9767C23.0114 15.2316 23.0439 15.5206 22.9811 15.7965C22.9183 16.0724 22.7639 16.3188 22.543 16.4956C22.3222 16.6724 22.0479 16.7691 21.765 16.77Z" fill="#D35400"/>
<path d="M23.64 13.495C23.4847 13.4955 23.3308 13.4667 23.1862 13.41C22.2502 13.0407 21.4464 12.3993 20.8784 11.5687C20.3105 10.738 20.0045 9.75624 20 8.75C20 5.9925 22.2425 3.75 25 3.75C27.0738 3.75 28.9025 5 29.66 6.93375C29.7198 7.08666 29.749 7.24985 29.7457 7.41402C29.7425 7.57819 29.707 7.74011 29.6411 7.89054C29.5753 8.04097 29.4805 8.17696 29.3622 8.29076C29.2438 8.40455 29.1042 8.49392 28.9512 8.55375C28.7983 8.61358 28.6351 8.64271 28.471 8.63948C28.3068 8.63624 28.1449 8.6007 27.9945 8.53489C27.844 8.46907 27.708 8.37428 27.5942 8.25591C27.4804 8.13753 27.3911 7.99791 27.3312 7.845C27.1459 7.37707 26.8249 6.97522 26.4095 6.69102C25.9941 6.40682 25.5033 6.25324 25 6.25C23.6212 6.25 22.5 7.37125 22.5 8.75C22.5 9.7725 23.1412 10.7088 24.0937 11.08C24.3669 11.1845 24.5947 11.3816 24.7374 11.6369C24.8801 11.8922 24.9287 12.1894 24.8747 12.4769C24.8207 12.7643 24.6675 13.0237 24.4419 13.2097C24.2163 13.3958 23.9325 13.4967 23.64 13.495ZM40 41.25C33.7963 41.25 28.75 36.7638 28.75 31.2488C28.75 25.735 33.7963 21.25 40 21.25C46.2038 21.25 51.25 25.735 51.25 31.2488C51.25 36.7638 46.2038 41.25 40 41.25ZM40 23.75C35.1763 23.75 31.25 27.1138 31.25 31.2488C31.25 35.385 35.1763 38.75 40 38.75C44.8237 38.75 48.75 35.385 48.75 31.2488C48.75 27.1138 44.8237 23.75 40 23.75Z" fill="#D35400"/>
<path d="M40 31.25C37.9325 31.25 36.25 29.5675 36.25 27.5C36.25 25.4325 37.9325 23.75 40 23.75C42.0675 23.75 43.75 25.4325 43.75 27.5C43.75 29.5675 42.0675 31.25 40 31.25ZM40 26.25C39.6685 26.25 39.3505 26.3817 39.1161 26.6161C38.8817 26.8505 38.75 27.1685 38.75 27.5C38.75 27.8315 38.8817 28.1495 39.1161 28.3839C39.3505 28.6183 39.6685 28.75 40 28.75C40.3315 28.75 40.6495 28.6183 40.8839 28.3839C41.1183 28.1495 41.25 27.8315 41.25 27.5C41.25 27.1685 41.1183 26.8505 40.8839 26.6161C40.6495 26.3817 40.3315 26.25 40 26.25ZM32.5 21.25C30.4325 21.25 28.75 19.5675 28.75 17.5C28.75 15.4325 30.4325 13.75 32.5 13.75C34.5675 13.75 36.25 15.4325 36.25 17.5C36.25 19.5675 34.5675 21.25 32.5 21.25ZM32.5 16.25C32.1685 16.25 31.8505 16.3817 31.6161 16.6161C31.3817 16.8505 31.25 17.1685 31.25 17.5C31.25 17.8315 31.3817 18.1495 31.6161 18.3839C31.8505 18.6183 32.1685 18.75 32.5 18.75C32.8315 18.75 33.1495 18.6183 33.3839 18.3839C33.6183 18.1495 33.75 17.8315 33.75 17.5C33.75 17.1685 33.6183 16.8505 33.3839 16.6161C33.1495 16.3817 32.8315 16.25 32.5 16.25ZM47.5 21.25C45.4325 21.25 43.75 19.5675 43.75 17.5C43.75 15.4325 45.4325 13.75 47.5 13.75C49.5675 13.75 51.25 15.4325 51.25 17.5C51.25 19.5675 49.5675 21.25 47.5 21.25ZM47.5 16.25C47.1685 16.25 46.8505 16.3817 46.6161 16.6161C46.3817 16.8505 46.25 17.1685 46.25 17.5C46.25 17.8315 46.3817 18.1495 46.6161 18.3839C46.8505 18.6183 47.1685 18.75 47.5 18.75C47.8315 18.75 48.1495 18.6183 48.3839 18.3839C48.6183 18.1495 48.75 17.8315 48.75 17.5C48.75 17.1685 48.6183 16.8505 48.3839 16.6161C48.1495 16.3817 47.8315 16.25 47.5 16.25ZM57.5 55C57.1685 55 56.8505 54.8683 56.6161 54.6339C56.3817 54.3995 56.25 54.0815 56.25 53.75C56.25 45.4212 52.6937 38.9438 52.6587 38.88C52.5736 38.7364 52.5181 38.5772 52.4954 38.4118C52.4728 38.2464 52.4835 38.0782 52.5269 37.917C52.5704 37.7558 52.6457 37.605 52.7484 37.4733C52.8511 37.3417 52.9791 37.232 53.1249 37.1507C53.2707 37.0694 53.4313 37.0181 53.5972 36.9998C53.7632 36.9816 53.9311 36.9967 54.0911 37.0445C54.251 37.0922 54.3998 37.1714 54.5287 37.2776C54.6575 37.3837 54.7638 37.5146 54.8413 37.6625C55.0013 37.9487 58.75 44.7775 58.75 53.75C58.75 54.0815 58.6183 54.3995 58.3839 54.6339C58.1495 54.8683 57.8315 55 57.5 55Z" fill="#D35400"/>
<path d="M57.5 80C50.6075 80 45 73.8312 45 66.25C45 58.6687 50.6075 52.5 57.5 52.5C64.3925 52.5 70 58.6687 70 66.25C70 73.8312 64.3925 80 57.5 80ZM57.5 55C51.9863 55 47.5 60.0463 47.5 66.25C47.5 72.4538 51.9863 77.5 57.5 77.5C63.0138 77.5 67.5 72.4538 67.5 66.25C67.5 60.0463 63.0138 55 57.5 55Z" fill="#D35400"/>
<path d="M47.7566 73.7501H32.2441C31.9126 73.7501 31.5947 73.6184 31.3603 73.3839C31.1258 73.1495 30.9941 72.8316 30.9941 72.5001C30.9941 72.1685 31.1258 71.8506 31.3603 71.6162C31.5947 71.3818 31.9126 71.2501 32.2441 71.2501H47.7566C48.0882 71.2501 48.4061 71.3818 48.6405 71.6162C48.8749 71.8506 49.0066 72.1685 49.0066 72.5001C49.0066 72.8316 48.8749 73.1495 48.6405 73.3839C48.4061 73.6184 48.0882 73.7501 47.7566 73.7501ZM65.0004 58.1901C64.7551 58.1898 64.5153 58.1174 64.3108 57.9818C64.1064 57.8462 63.9463 57.6535 63.8507 57.4276C63.755 57.2017 63.7279 56.9527 63.7727 56.7115C63.8176 56.4703 63.9324 56.2477 64.1029 56.0713C69.3604 50.6326 60.3391 38.7376 56.4204 34.6126C56.1918 34.3724 56.068 34.0512 56.0762 33.7197C56.0844 33.3883 56.224 33.0736 56.4641 32.8451C56.7043 32.6165 57.0255 32.4927 57.357 32.5009C57.6884 32.5091 58.0031 32.6486 58.2316 32.8888C58.8754 33.5651 73.8904 49.5426 65.9004 57.8101C65.7834 57.9304 65.6435 58.026 65.4889 58.0912C65.3343 58.1565 65.1682 58.1901 65.0004 58.1901Z" fill="#D35400"/>
<path d="M22.5 80C15.6075 80 10 73.8312 10 66.25C10 58.6687 15.6075 52.5 22.5 52.5C29.3925 52.5 35 58.6687 35 66.25C35 73.8312 29.3925 80 22.5 80ZM22.5 55C16.9863 55 12.5 60.0463 12.5 66.25C12.5 72.4538 16.9863 77.5 22.5 77.5C28.0138 77.5 32.5 72.4538 32.5 66.25C32.5 60.0463 28.0138 55 22.5 55Z" fill="#D35400"/>
<path d="M15.0002 58.19C14.8324 58.1902 14.6664 58.1565 14.5119 58.091C14.3575 58.0255 14.2179 57.9295 14.1014 57.8087C6.1102 49.5425 21.1264 33.5637 21.7702 32.8875C21.9988 32.6473 22.3134 32.5077 22.6449 32.4995C22.9764 32.4913 23.2975 32.6151 23.5377 32.8437C23.7779 33.0723 23.9174 33.3869 23.9256 33.7184C23.9338 34.0499 23.81 34.371 23.5814 34.6112C19.6614 38.7362 10.6402 50.6312 15.8989 56.07C16.0699 56.2464 16.1851 56.4692 16.2302 56.7107C16.2752 56.9522 16.2481 57.2017 16.1522 57.4279C16.0564 57.654 15.8959 57.847 15.6911 57.9825C15.4862 58.118 15.2459 58.1902 15.0002 58.19ZM22.5002 55C22.1687 55 21.8507 54.8683 21.6163 54.6339C21.3819 54.3994 21.2502 54.0815 21.2502 53.75C21.2502 44.7775 24.9989 37.9487 25.1589 37.6625C25.3205 37.3738 25.5898 37.1609 25.9079 37.0703C26.226 36.9796 26.567 37.0186 26.8564 37.1787C27.4589 37.515 27.6764 38.275 27.3427 38.8787C27.3077 38.9437 23.7502 45.4525 23.7502 53.75C23.7502 54.0815 23.6185 54.3994 23.3841 54.6339C23.1497 54.8683 22.8317 55 22.5002 55ZM22.5002 75C18.3639 75 15.0002 71.0737 15.0002 66.25C15.0002 61.4262 18.3639 57.5 22.5002 57.5C26.6364 57.5 30.0002 61.4262 30.0002 66.25C30.0002 71.0737 26.6364 75 22.5002 75ZM22.5002 60C19.7427 60 17.5002 62.8037 17.5002 66.25C17.5002 69.6962 19.7427 72.5 22.5002 72.5C25.2577 72.5 27.5002 69.6962 27.5002 66.25C27.5002 62.8037 25.2577 60 22.5002 60ZM57.5002 75C53.3639 75 50.0002 71.0737 50.0002 66.25C50.0002 61.4262 53.3639 57.5 57.5002 57.5C61.6364 57.5 65.0002 61.4262 65.0002 66.25C65.0002 71.0737 61.6364 75 57.5002 75ZM57.5002 60C54.7427 60 52.5002 62.8037 52.5002 66.25C52.5002 69.6962 54.7427 72.5 57.5002 72.5C60.2577 72.5 62.5002 69.6962 62.5002 66.25C62.5002 62.8037 60.2577 60 57.5002 60Z" fill="#D35400"/>
</svg>
