<svg width="80" height="80" viewBox="0 0 80 80" fill="none" xmlns="http://www.w3.org/2000/svg">
<path d="M58.0625 34.0781C58.0625 28.1719 53.4688 23.3594 47.8281 23.3594C44.875 23.3594 42.0781 24.7188 40.1406 27C38.2188 24.7188 35.4062 23.3594 32.4531 23.3594C26.8125 23.3594 22.2187 28.1719 22.2187 34.0781C22.2187 35.1406 22.4688 36.2812 22.9063 37.4531H18.4219V40H24.1406C28.4688 47.9687 40.1406 56.9844 40.1406 56.9844C40.1406 56.9844 51.9688 47.9375 56.2031 40H61.9531V37.4375H57.3906C57.8125 36.2812 58.0625 35.1406 58.0625 34.0781ZM40.1406 53.7187C36.6719 50.8594 30.4688 45.1562 27.1094 40H30.2656L33.9375 34.75L39.4062 44.8594L43.5625 39.7344L46.2344 44.6719L50.9062 40H53.2188C49.875 45.2031 43.6406 50.8906 40.1406 53.7187ZM54.6406 37.4375H49.8594L46.8594 40.4375L44 35.1406L39.8438 40.2656L34.2188 29.8906L28.9375 37.4375H25.6719C25.1094 36.2344 24.7813 35.0781 24.7813 34.0625C24.7813 29.5625 28.2344 25.9063 32.4688 25.9063C35.1719 25.9063 37.625 27.375 39.0312 29.8594L40.1406 31.8125L41.25 29.8594C42.6562 27.3906 45.1094 25.9063 47.8125 25.9063C52.0469 25.9063 55.5 29.5625 55.5 34.0625C55.5 35.0937 55.1719 36.2344 54.6406 37.4375Z" fill="#D35400"/>
<path d="M61.7656 10.5469H54.2344L53.375 8.82812C52.7188 7.51562 51.4062 6.70312 49.9375 6.70312H48.5781C47.4688 2.95313 44.0156 0.3125 40 0.3125C35.9844 0.3125 32.5313 2.95312 31.4219 6.71875H30.0625C28.5938 6.71875 27.2812 7.53125 26.625 8.84375L25.7656 10.5625H18.2344C14.7031 10.5625 11.8281 13.4375 11.8281 16.9688V73.2812C11.8281 76.8125 14.7031 79.6875 18.2344 79.6875H61.7656C65.2969 79.6875 68.1719 76.8125 68.1719 73.2812V16.9531C68.1719 13.4219 65.2969 10.5469 61.7656 10.5469ZM27.3125 13.2031L28.9219 9.98438C29.1406 9.54688 29.5781 9.28125 30.0625 9.28125H33.5156L33.7031 8.21875C34.2188 5.125 36.875 2.89062 40 2.89062C43.125 2.89062 45.7812 5.14062 46.2969 8.21875L46.4844 9.28125H49.9375C50.4219 9.28125 50.8594 9.54688 51.0781 9.98438L52.6875 13.2031C52.9219 13.5938 52.7344 14.3437 51.9531 14.4062H28.0469C27.625 14.4375 26.9844 13.9375 27.3125 13.2031ZM65.6094 73.2812C65.6094 75.4062 63.8906 77.125 61.7656 77.125H18.2344C16.1094 77.125 14.3906 75.4062 14.3906 73.2812V16.9531C14.3906 14.8281 16.1094 13.1094 18.2344 13.1094H24.7031C24.5938 13.875 24.7344 14.6562 25.1562 15.3438C25.7812 16.3438 26.8594 16.9531 28.0312 16.9531H51.9375C53.125 16.9531 54.2031 16.3594 54.8125 15.3438C55.2344 14.6562 55.375 13.875 55.2656 13.1094H61.7344C63.8594 13.1094 65.5781 14.8281 65.5781 16.9531V73.2812H65.6094Z" fill="#D35400"/>
<path d="M19.7031 61.7656H45.3125V64.3281H19.7031V61.7656ZM58.1094 61.7656H60.6719V64.3281H58.1094V61.7656ZM52.9844 61.7656H55.5469V64.3281H52.9844V61.7656ZM47.8594 61.7656H50.4219V64.3281H47.8594V61.7656ZM19.7031 69.4531H60.6719V72.0156H19.7031V69.4531Z" fill="#D35400"/>
</svg>
