<svg width="71" height="72" viewBox="0 0 71 72" fill="none" xmlns="http://www.w3.org/2000/svg">
<path d="M25.6667 71.6667C18.6667 71.6667 12.3333 69 7.33333 64C2.66667 59.3334 0 52.6667 0 45.6667C0 39 2.66667 32.3334 7.66667 27.3334C12.3333 22.6667 19 20 25.6667 20C30.6667 20 35.3333 21.3334 39.6667 24L51.6667 11.6667H51C48 11.6667 45.3333 9.00004 45.3333 6.00004C45.3333 2.66671 48 0.333374 51 0.333374H65.3333C68.3333 0.333374 71 3.00004 71 6.00004V20.3334C71 23.6667 68.3333 26 65.3333 26C62 26 59.6667 23.3334 59.6667 20.3334V20L47.6667 32.3334C54 42.3334 52.6667 55.6667 44 64.3334C39.3333 69 32.6667 71.6667 25.6667 71.6667ZM25.6667 23C19.6667 23 13.6667 25.3334 9.33333 29.6667C5 34 2.66667 39.6667 2.66667 46C2.66667 52.3334 5 58 9.33333 62.3334C13.6667 66.6667 19.3333 69 25.6667 69C32 69 37.6667 66.6667 42 62.3334C50 54.3334 51 42 44.6667 33C44.3333 32.3334 44.3333 31.6667 44.6667 31L60.3333 15.3334C60.6667 15 61.3333 14.6667 62 15C62.6667 15.3334 63 16 63 16.3334V20.6667C63 22.3334 64.3333 23.3334 65.6667 23.3334C67 23.3334 68.3333 22 68.3333 20.6667V6.00004C68.3333 4.33337 67 3.33337 65.6667 3.33337H51.3333C49.6667 3.33337 48.6667 4.66671 48.6667 6.00004C48.6667 7.66671 50 8.66671 51.3333 8.66671H55.6667C56.3333 8.66671 56.6667 9.00004 57 9.66671C57.3333 10.3334 57 11 56.6667 11.3334L41 26.6667C40.6667 27.3334 39.6667 27.3334 39 27C35 24.3334 30.6667 23 25.6667 23ZM25.6667 63.3334C21 63.3334 16.6667 61.3334 13.3333 58C6.66667 51.3334 6.66667 40.3334 13.3333 33.3334C16.6667 30 21 28.3334 25.6667 28.3334C30.3333 28.3334 34.6667 30.3334 38 33.3334C41.3333 36.6667 43 41 43 45.6667C43 50.3334 41 54.6667 38 58C35 61.6667 30.3333 63.3334 25.6667 63.3334ZM25.6667 31.3334C22 31.3334 18.3333 33 15.3333 35.6667C9.66667 41.3334 9.66667 50.3334 15.3333 56C18 58.6667 21.6667 60.3334 25.6667 60.3334C29.6667 60.3334 33 58.6667 36 56C38.6667 53.3334 40.3333 49.6667 40.3333 45.6667C40.3333 41.6667 38.6667 38.3334 36 35.6667C33.3333 33 29.6667 31.3334 25.6667 31.3334Z" fill="#D35400"/>
</svg>
