<svg width="44" height="68" viewBox="0 0 44 68" fill="none" xmlns="http://www.w3.org/2000/svg">
<path d="M18.2505 43.497V52.75H12.938C12.6064 52.75 12.2885 52.8817 12.0541 53.1161C11.8197 53.3505 11.688 53.6685 11.688 54V59C11.688 59.3315 11.8197 59.6495 12.0541 59.8839C12.2885 60.1183 12.6064 60.25 12.938 60.25H18.2505V66.1875C18.2505 66.519 18.3822 66.837 18.6166 67.0714C18.851 67.3058 19.1689 67.4375 19.5005 67.4375H24.5005C24.832 67.4375 25.1499 67.3058 25.3844 67.0714C25.6188 66.837 25.7505 66.519 25.7505 66.1875V60.25H31.063C31.3945 60.25 31.7124 60.1183 31.9469 59.8839C32.1813 59.6495 32.313 59.3315 32.313 59V54C32.313 53.6685 32.1813 53.3505 31.9469 53.1161C31.7124 52.8817 31.3945 52.75 31.063 52.75H25.7505V43.497C30.1313 42.7449 34.1689 40.6463 37.3017 37.4931C45.7392 29.0556 45.7392 15.328 37.3017 6.89093C33.2406 2.83844 27.7377 0.5625 22.0005 0.5625C16.2633 0.5625 10.7604 2.83844 6.69922 6.89093C-1.73828 15.3284 -1.73828 29.0561 6.69922 37.4931C9.83208 40.6463 13.8696 42.7449 18.2505 43.497ZM8.46719 8.65859C12.0571 5.07214 16.9243 3.05812 21.9987 3.05934C27.0731 3.06057 31.9394 5.07694 35.5275 8.66512C39.1157 12.2533 41.132 17.1196 41.1331 22.194C41.1343 27.2684 39.1202 32.1356 35.5337 35.7255C32.5263 38.7515 28.5848 40.6728 24.3484 41.1778C24.0455 41.2149 23.7666 41.3616 23.5644 41.5902C23.3621 41.8187 23.2505 42.1134 23.2505 42.4186V54C23.2505 54.3315 23.3822 54.6495 23.6166 54.8839C23.851 55.1183 24.1689 55.25 24.5005 55.25H29.813V57.75H24.5005C24.1689 57.75 23.851 57.8817 23.6166 58.1161C23.3822 58.3505 23.2505 58.6685 23.2505 59V64.9375H20.7505V59C20.7505 58.6685 20.6188 58.3505 20.3844 58.1161C20.1499 57.8817 19.832 57.75 19.5005 57.75H14.188V55.25H19.5005C19.832 55.25 20.1499 55.1183 20.3844 54.8839C20.6188 54.6495 20.7505 54.3315 20.7505 54V42.4186C20.7505 42.1134 20.6388 41.8187 20.4366 41.5902C20.2343 41.3616 19.9554 41.2149 19.6525 41.1778C15.4162 40.6728 11.4747 38.7514 8.46719 35.7255C4.88314 32.1334 2.87032 27.2663 2.87032 22.192C2.87032 17.1177 4.88314 12.2507 8.46719 8.65859Z" fill="#D35400"/>
<path d="M22.0007 38.8235C25.8483 38.821 29.5761 37.4845 32.5488 35.0417C35.5215 32.5989 37.5553 29.201 38.3036 25.4268C39.052 21.6527 38.4686 17.7358 36.6529 14.3435C34.8371 10.9513 31.9014 8.29355 28.3458 6.82311C24.7902 5.35267 20.8348 5.16052 17.1535 6.2794C13.4721 7.39828 10.2926 9.75895 8.1566 12.9592C6.02061 16.1595 5.06031 20.0014 5.4393 23.8303C5.8183 27.6592 7.51315 31.2383 10.2351 33.9577C11.7791 35.5037 13.6134 36.7293 15.6325 37.5644C17.6516 38.3994 19.8158 38.8273 22.0007 38.8235ZM12.0029 12.1941C13.9799 10.219 16.4981 8.87435 19.2392 8.33014C21.9802 7.78593 24.8211 8.06659 27.4027 9.13664C29.9843 10.2067 32.1907 12.0181 33.743 14.3419C35.2953 16.6657 36.1238 19.3975 36.1238 22.1921C36.1238 24.9866 35.2953 27.7185 33.743 30.0423C32.1907 32.3661 29.9843 34.1775 27.4027 35.2475C24.8211 36.3176 21.9802 36.5982 19.2392 36.054C16.4981 35.5098 13.9799 34.1652 12.0029 32.19C9.35544 29.5362 7.86864 25.9407 7.86864 22.1921C7.86864 18.4435 9.35544 14.8479 12.0029 12.1941Z" fill="#D35400"/>
</svg>
