<svg width="80" height="80" viewBox="0 0 80 80" fill="none" xmlns="http://www.w3.org/2000/svg">
<g clip-path="url(#clip0_340_1137)">
<path d="M77.4545 65.8182L57.0909 47.0909C55.6364 45.8182 53.4545 45.8182 52 47.2727L50.9091 48.3636L47.8182 45.2727C52.1818 40.3636 54.5455 34 54.5455 27.2727C54.5455 12.1818 42.3636 0 27.2727 0C12.1818 0 0 12.1818 0 27.2727C0 42.3636 12.1818 54.5455 27.2727 54.5455C32 54.5455 36.7273 53.2727 40.9091 50.9091C41.8182 50.3636 42 49.2727 41.6364 48.3636C41.0909 47.4545 39.9091 48.1364 39 48.5C35.3636 50.5 31.1818 51.5 27 51.5C13.9091 51.6818 2.5 40.0909 2.5 27C2.5 13.9091 14.1818 2.5 27.2727 2.5C40.3636 2.5 52 14.4091 52 27.5C52 33.6818 48.8636 39.6364 44.5 44C44.1364 44.3636 43.6364 44.4545 43.6364 45V45.4545C44 46 44.1364 46.1364 44.5 46.5L46.5 48.5L48.3636 50.9091L47.2727 52C45.8182 53.4545 45.8182 55.6364 47.0909 57.0909L65.8182 77.4545C67.2727 79.0909 69.4545 80 71.8182 80C76.3636 80 80 76.3636 80 71.8182C80 69.6364 79.0909 67.4545 77.4545 65.8182ZM71.4441 77.4545C70.1714 77.4545 68.2273 75.9091 67.5 75L58 64.5L49 54L52 51.5L55.5 49L65 57.5L75.5 67.5C76.4091 68.4091 77.4545 71.2273 77.4545 72.5C77.4545 75.0455 73.9896 77.4545 71.4441 77.4545Z" fill="#D35400"/>
<path d="M27.2725 7.27271C16.1816 7.27271 7.27246 16.1818 7.27246 27.2727C7.27246 38.3636 16.1816 47.2727 27.2725 47.2727C38.3634 47.2727 47.2725 38.3636 47.2725 27.2727C47.2725 16.1818 38.3634 7.27271 27.2725 7.27271ZM27.2725 44.5C18.1816 44.5 9.99976 36.0909 9.99976 27C9.99976 17.9091 18.1816 10.325 27.2725 10.325C36.3634 10.325 44.4998 17.9091 44.4998 27C44.4998 36.0909 36.3634 44.5 27.2725 44.5Z" fill="#D35400"/>
<path d="M27.2727 14C20 14 14 20 14 27.2727C14 28.3636 14.7273 29.0909 15.8182 29.0909C16.9091 29.0909 17 28.3636 17 27.2727C17 22 22 17 27.2727 17C28.3636 17 29.0909 16.9091 29.0909 15.8182C29.0909 14.7273 28.3636 14 27.2727 14Z" fill="#D35400"/>
</g>
<defs>
<clipPath id="clip0_340_1137">
<rect width="80" height="80" fill="white"/>
</clipPath>
</defs>
</svg>
