<svg width="80" height="80" viewBox="0 0 80 80" fill="none" xmlns="http://www.w3.org/2000/svg">
<g clip-path="url(#clip0_340_1128)">
<path d="M34.0625 17.1875H36.4844V19.6094C36.4852 20.3343 36.7736 21.0293 37.2862 21.542C37.7988 22.0546 38.4938 22.3429 39.2188 22.3438H40.7812C41.5062 22.3429 42.2012 22.0546 42.7138 21.542C43.2264 21.0293 43.5148 20.3343 43.5156 19.6094V17.1875H45.9375C46.6624 17.1867 47.3575 16.8983 47.8701 16.3857C48.3827 15.8731 48.671 15.1781 48.6719 14.4531V12.8906C48.671 12.1657 48.3827 11.4707 47.8701 10.958C47.3575 10.4454 46.6624 10.1571 45.9375 10.1562H43.5156V7.73438C43.5148 7.00943 43.2264 6.31441 42.7138 5.80179C42.2012 5.28918 41.5062 5.00083 40.7812 5H39.2188C38.4938 5.00083 37.7988 5.28918 37.2862 5.80179C36.7736 6.31441 36.4852 7.00943 36.4844 7.73438V10.1562H34.0625C33.3376 10.1571 32.6425 10.4454 32.1299 10.958C31.6173 11.4707 31.329 12.1657 31.3281 12.8906V14.4531C31.329 15.1781 31.6173 15.8731 32.1299 16.3857C32.6425 16.8983 33.3376 17.1867 34.0625 17.1875ZM33.6719 12.8906C33.672 12.7871 33.7132 12.6878 33.7864 12.6145C33.8597 12.5413 33.9589 12.5001 34.0625 12.5H37.6562C37.9671 12.5 38.2651 12.3765 38.4849 12.1568C38.7047 11.937 38.8281 11.6389 38.8281 11.3281V7.73438C38.8283 7.63081 38.8694 7.53153 38.9427 7.4583C39.0159 7.38507 39.1152 7.34387 39.2188 7.34375H40.7812C40.8848 7.34387 40.9841 7.38507 41.0573 7.4583C41.1306 7.53153 41.1717 7.63081 41.1719 7.73438V11.3281C41.1719 11.6389 41.2953 11.937 41.5151 12.1568C41.7349 12.3765 42.0329 12.5 42.3438 12.5H45.9375C46.0411 12.5001 46.1403 12.5413 46.2136 12.6145C46.2868 12.6878 46.328 12.7871 46.3281 12.8906V14.4531C46.328 14.5567 46.2868 14.656 46.2136 14.7292C46.1403 14.8024 46.0411 14.8436 45.9375 14.8438H42.3438C42.0329 14.8438 41.7349 14.9672 41.5151 15.187C41.2953 15.4068 41.1719 15.7048 41.1719 16.0156V19.6094C41.1717 19.7129 41.1306 19.8122 41.0573 19.8855C40.9841 19.9587 40.8848 19.9999 40.7812 20H39.2188C39.1152 19.9999 39.0159 19.9587 38.9427 19.8855C38.8694 19.8122 38.8283 19.7129 38.8281 19.6094V16.0156C38.8281 15.7048 38.7047 15.4068 38.4849 15.187C38.2651 14.9672 37.9671 14.8438 37.6562 14.8438H34.0625C33.9589 14.8436 33.8597 14.8024 33.7864 14.7292C33.7132 14.656 33.672 14.5567 33.6719 14.4531V12.8906ZM74.1406 21.875H61.25V20.7031C61.2483 19.1497 60.6304 17.6603 59.5319 16.5618C58.4334 15.4634 56.9441 14.8455 55.3906 14.8438H53.4578C53.4906 14.4573 53.5081 14.0667 53.5081 13.6719C53.5081 6.13312 47.4483 0 40 0C32.5517 0 26.4919 6.13312 26.4919 13.6719C26.4919 14.0667 26.5095 14.4573 26.542 14.8438H24.6094C23.0559 14.8455 21.5666 15.4634 20.4681 16.5618C19.3696 17.6603 18.7517 19.1497 18.75 20.7031V21.875H5.85938C4.30591 21.8767 2.81656 22.4946 1.71809 23.5931C0.61962 24.6916 0.00173697 26.1809 0 27.7344L0 74.1406C0.00173697 75.6941 0.61962 77.1834 1.71809 78.2819C2.81656 79.3804 4.30591 79.9983 5.85938 80H74.1406C75.6941 79.9983 77.1834 79.3804 78.2819 78.2819C79.3804 77.1834 79.9983 75.6941 80 74.1406V27.7344C79.9983 26.1809 79.3804 24.6916 78.2819 23.5931C77.1834 22.4946 75.6941 21.8767 74.1406 21.875ZM18.75 53.75H9.375V49.5312H18.75V53.75ZM18.75 40.1562H9.375V35.9375H18.75V40.1562ZM18.75 33.5938H9.14062C8.58137 33.5944 8.04521 33.8168 7.64976 34.2123C7.25431 34.6077 7.03187 35.1439 7.03125 35.7031V40.3906C7.03187 40.9499 7.25431 41.486 7.64976 41.8815C8.04521 42.2769 8.58137 42.4994 9.14062 42.5H18.75V47.1875H9.14062C8.58137 47.1881 8.04521 47.4106 7.64976 47.806C7.25431 48.2015 7.03187 48.7376 7.03125 49.2969V53.9844C7.03187 54.5436 7.25431 55.0798 7.64976 55.4752C8.04521 55.8707 8.58137 56.0931 9.14062 56.0938H18.75V77.6562H5.85938C4.92729 77.6552 4.03368 77.2845 3.37459 76.6254C2.71551 75.9663 2.34478 75.0727 2.34375 74.1406V27.7344C2.34478 26.8023 2.71551 25.9087 3.37459 25.2496C4.03368 24.5905 4.92729 24.2198 5.85938 24.2188H18.75V33.5938ZM40 2.34375C46.1559 2.34375 51.1644 7.42547 51.1644 13.6719C51.1644 19.9183 46.1559 25 40 25C33.8441 25 28.8356 19.9183 28.8356 13.6719C28.8356 7.42547 33.8441 2.34375 40 2.34375ZM45.3125 77.6562H34.6875V64.2969C34.6878 63.9862 34.8114 63.6883 35.0311 63.4686C35.2508 63.2489 35.5487 63.1253 35.8594 63.125H44.1406C44.4513 63.1253 44.7492 63.2489 44.9689 63.4686C45.1886 63.6883 45.3122 63.9862 45.3125 64.2969V77.6562ZM58.9062 77.6562H47.6562V64.2969C47.6552 63.3648 47.2845 62.4712 46.6254 61.8121C45.9663 61.153 45.0727 60.7823 44.1406 60.7812H35.8594C34.9273 60.7823 34.0337 61.153 33.3746 61.8121C32.7155 62.4712 32.3448 63.3648 32.3438 64.2969V77.6562H21.0938V20.7031C21.0948 19.771 21.4655 18.8774 22.1246 18.2183C22.7837 17.5593 23.6773 17.1885 24.6094 17.1875H26.9455C28.4823 23.0281 33.7522 27.3438 40 27.3438C46.2478 27.3438 51.5177 23.0281 53.0545 17.1875H55.3906C56.3227 17.1885 57.2163 17.5593 57.8754 18.2183C58.5345 18.8774 58.9052 19.771 58.9062 20.7031V77.6562ZM61.25 35.9375H70.625V40.1562H61.25V35.9375ZM61.25 49.5312H70.625V53.75H61.25V49.5312ZM77.6562 74.1406C77.6552 75.0727 77.2845 75.9663 76.6254 76.6254C75.9663 77.2845 75.0727 77.6552 74.1406 77.6562H61.25V56.0938H70.8594C71.4186 56.0931 71.9548 55.8707 72.3502 55.4752C72.7457 55.0798 72.9681 54.5436 72.9688 53.9844V49.2969C72.9681 48.7376 72.7457 48.2015 72.3502 47.806C71.9548 47.4106 71.4186 47.1881 70.8594 47.1875H61.25V42.5H70.8594C71.4186 42.4994 71.9548 42.2769 72.3502 41.8815C72.7457 41.486 72.9681 40.9499 72.9688 40.3906V35.7031C72.9681 35.1439 72.7457 34.6077 72.3502 34.2123C71.9548 33.8168 71.4186 33.5944 70.8594 33.5938H61.25V24.2188H74.1406C75.0727 24.2198 75.9663 24.5905 76.6254 25.2496C77.2845 25.9087 77.6552 26.8023 77.6562 27.7344V74.1406ZM52.1094 33.5938H43.2812C42.722 33.5944 42.1858 33.8168 41.7904 34.2123C41.3949 34.6077 41.1725 35.1439 41.1719 35.7031V40.3906C41.1725 40.9499 41.3949 41.486 41.7904 41.8815C42.1858 42.2769 42.722 42.4994 43.2812 42.5H52.1094C52.6686 42.4994 53.2048 42.2769 53.6002 41.8815C53.9957 41.486 54.2181 40.9499 54.2188 40.3906V35.7031C54.2181 35.1439 53.9957 34.6077 53.6002 34.2123C53.2048 33.8168 52.6686 33.5944 52.1094 33.5938ZM51.875 40.1562H43.5156V35.9375H51.875V40.1562ZM52.1094 47.1875H43.2812C42.722 47.1881 42.1858 47.4106 41.7904 47.806C41.3949 48.2015 41.1725 48.7376 41.1719 49.2969V53.9844C41.1725 54.5436 41.3949 55.0798 41.7904 55.4752C42.1858 55.8707 42.722 56.0931 43.2812 56.0938H52.1094C52.6686 56.0931 53.2048 55.8707 53.6002 55.4752C53.9957 55.0798 54.2181 54.5436 54.2188 53.9844V49.2969C54.2181 48.7376 53.9957 48.2015 53.6002 47.806C53.2048 47.4106 52.6686 47.1881 52.1094 47.1875ZM51.875 53.75H43.5156V49.5312H51.875V53.75ZM36.7188 47.1875H27.8906C27.3314 47.1881 26.7952 47.4106 26.3998 47.806C26.0043 48.2015 25.7819 48.7376 25.7812 49.2969V53.9844C25.7819 54.5436 26.0043 55.0798 26.3998 55.4752C26.7952 55.8707 27.3314 56.0931 27.8906 56.0938H36.7188C37.278 56.0931 37.8142 55.8707 38.2096 55.4752C38.6051 55.0798 38.8275 54.5436 38.8281 53.9844V49.2969C38.8275 48.7376 38.6051 48.2015 38.2096 47.806C37.8142 47.4106 37.278 47.1881 36.7188 47.1875ZM36.4844 53.75H28.125V49.5312H36.4844V53.75ZM36.7188 33.5938H27.8906C27.3314 33.5944 26.7952 33.8168 26.3998 34.2123C26.0043 34.6077 25.7819 35.1439 25.7812 35.7031V40.3906C25.7819 40.9499 26.0043 41.486 26.3998 41.8815C26.7952 42.2769 27.3314 42.4994 27.8906 42.5H36.7188C37.278 42.4994 37.8142 42.2769 38.2096 41.8815C38.6051 41.486 38.8275 40.9499 38.8281 40.3906V35.7031C38.8275 35.1439 38.6051 34.6077 38.2096 34.2123C37.8142 33.8168 37.278 33.5944 36.7188 33.5938ZM36.4844 40.1562H28.125V35.9375H36.4844V40.1562Z" fill="#D35400"/>
</g>
<defs>
<clipPath id="clip0_340_1128">
<rect width="80" height="80" fill="white"/>
</clipPath>
</defs>
</svg>
