<svg width="32" height="32" viewBox="0 0 32 32" fill="none" xmlns="http://www.w3.org/2000/svg">
<g clip-path="url(#clip0_340_1266)">
<path d="M32 16C32 7.16375 24.8363 0 16 0C7.16375 0 0 7.16375 0 16C0 24.8363 7.16375 32 16 32C24.8363 32 32 24.8369 32 16ZM23.8525 14.2887L17.0581 21.0831C16.7768 21.3644 16.3953 21.5224 15.9975 21.5224C15.5997 21.5224 15.2182 21.3644 14.9369 21.0831L8.1475 14.2937C7.8662 14.0124 7.70821 13.6308 7.70827 13.2329C7.70832 12.835 7.86643 12.4535 8.14781 12.1722C8.42919 11.8909 8.81079 11.7329 9.20866 11.733C9.60653 11.733 9.98808 11.8911 10.2694 12.1725L16 17.9006L21.7337 12.1675C22.0158 11.89 22.3961 11.7352 22.7918 11.7368C23.1876 11.7384 23.5666 11.8963 23.8464 12.1761C24.1262 12.4559 24.2841 12.8349 24.2857 13.2307C24.2873 13.6264 24.1325 14.0067 23.855 14.2887H23.8525Z" fill="#F39C12"/>
</g>
<defs>
<clipPath id="clip0_340_1266">
<rect width="32" height="32" fill="white"/>
</clipPath>
</defs>
</svg>
