<svg width="32" height="32" viewBox="0 0 32 32" fill="none" xmlns="http://www.w3.org/2000/svg">
<g clip-path="url(#clip0_340_1259)">
<path d="M32 16C32 24.8363 24.8363 32 16 32C7.16375 32 0 24.8363 0 16C0 7.16375 7.16375 0 16 0C24.8363 0 32 7.16312 32 16ZM23.8525 17.7113L17.0581 10.9169C16.7768 10.6356 16.3953 10.4776 15.9975 10.4776C15.5997 10.4776 15.2182 10.6356 14.9369 10.9169L8.1475 17.7063C7.8662 17.9876 7.70821 18.3692 7.70827 18.7671C7.70832 19.165 7.86643 19.5465 8.14781 19.8278C8.42919 20.1091 8.81079 20.2671 9.20866 20.267C9.60653 20.267 9.98808 20.1089 10.2694 19.8275L16 14.0994L21.7337 19.8325C22.0158 20.11 22.3961 20.2648 22.7918 20.2632C23.1876 20.2616 23.5666 20.1037 23.8464 19.8239C24.1262 19.5441 24.2841 19.1651 24.2857 18.7693C24.2873 18.3736 24.1325 17.9933 23.855 17.7113H23.8525Z" fill="#F39C12"/>
</g>
<defs>
<clipPath id="clip0_340_1259">
<rect width="32" height="32" fill="white" transform="matrix(1 0 0 -1 0 32)"/>
</clipPath>
</defs>
</svg>
