<svg width="400" height="60" viewBox="0 0 400 60" fill="none" xmlns="http://www.w3.org/2000/svg">
<g clip-path="url(#clip0_70_1143)">
<path d="M135.652 46.5712C139.739 47.738 144.633 48.3213 150.332 48.3213C156.319 48.3213 161.472 47.6713 165.79 46.3712C170.107 45.0711 173.504 43.3376 175.979 41.1707C178.455 39.0039 179.981 36.6204 180.556 34.0201H168.207C167.517 36.4537 165.53 38.3538 162.249 39.7206C159.025 41.0541 155.053 41.7208 150.332 41.7208C147.108 41.7208 144.258 41.4041 141.783 40.7707C139.365 40.1373 137.321 39.2539 135.652 38.1205C133.982 36.9537 132.716 35.6036 131.852 34.0701C131.046 32.5367 130.643 30.8699 130.643 29.0697C130.643 27.2029 131.046 25.5028 131.852 23.9693C132.716 22.4358 133.953 21.1024 135.565 19.969C137.177 18.8355 139.192 17.9688 141.61 17.3687C144.028 16.7354 146.791 16.4187 149.9 16.4187C152.951 16.4187 155.686 16.7187 158.104 17.3187C160.522 17.8855 162.508 18.7522 164.062 19.919C165.674 21.0524 166.711 22.4525 167.171 24.1193H179.52C179.002 21.2524 177.476 18.7522 174.943 16.6187C172.41 14.4518 169.013 12.785 164.753 11.6183C160.551 10.4182 155.6 9.81812 149.9 9.81812C144.431 9.81812 139.682 10.3682 135.652 11.4683C131.679 12.535 128.398 13.9685 125.807 15.7686C123.217 17.5688 121.288 19.5689 120.021 21.7691C118.812 23.9693 118.208 26.2028 118.208 28.4697V29.5698C118.208 31.6033 118.812 33.7201 120.021 35.9203C121.23 38.1205 123.101 40.154 125.635 42.0208C128.225 43.8876 131.564 45.4044 135.652 46.5712Z" fill="#007BFF"/>
<path fill-rule="evenodd" clip-rule="evenodd" d="M212.579 44.071C213.172 43.4883 213.662 42.8454 214.047 42.1422V47.3713H223.546V30.5198C223.546 27.9863 222.711 25.9361 221.042 24.3693C219.43 22.8025 217.012 21.6524 213.788 20.919C210.622 20.1856 206.621 19.819 201.785 19.819C200.23 19.819 198.561 19.8356 196.776 19.869C195.049 19.869 193.351 19.9023 191.681 19.969C190.012 20.0356 188.515 20.1023 187.191 20.169V26.0695C188.803 26.0028 190.616 25.9528 192.631 25.9195C194.704 25.8528 196.747 25.8028 198.762 25.7695C200.777 25.7361 202.504 25.7194 203.944 25.7194C206.707 25.7194 208.751 26.1028 210.075 26.8695C211.399 27.6363 212.061 28.803 212.061 30.3698V30.6199H202.476C198.331 30.6199 194.704 30.9365 191.595 31.5699C188.544 32.2033 186.154 33.1534 184.427 34.4202C182.758 35.6869 181.923 37.3204 181.923 39.3206C181.923 41.1541 182.614 42.7209 183.996 44.021C185.435 45.3211 187.421 46.3212 189.954 47.0212C192.545 47.7213 195.538 48.0713 198.935 48.0713C202.216 48.0713 204.98 47.738 207.225 47.0712C209.528 46.3712 211.313 45.3711 212.579 44.071ZM210.42 40.8207C211.399 39.954 211.946 38.7872 212.061 37.3204V34.7702H202.303C199.539 34.7702 197.409 35.1702 195.913 35.9703C194.473 36.737 193.754 37.7371 193.754 38.9706C193.754 40.204 194.473 41.2041 195.913 41.9708C197.409 42.7375 199.539 43.1209 202.303 43.1209C203.972 43.1209 205.498 42.9542 206.88 42.6209C208.319 42.2542 209.499 41.6541 210.42 40.8207Z" fill="#007BFF"/>
<path d="M252.897 48.3213C248.81 48.3213 245.269 47.9213 242.276 47.1212C239.34 46.3212 236.864 45.2544 234.849 43.921C232.892 42.5875 231.424 41.0874 230.445 39.4206C229.466 37.7538 228.977 36.0536 228.977 34.3202V33.3701C228.977 31.5366 229.466 29.7865 230.445 28.1196C231.481 26.4195 233.007 24.9194 235.022 23.6193C237.037 22.2858 239.512 21.2357 242.448 20.469C245.442 19.6689 248.896 19.2689 252.811 19.2689C256.898 19.2689 260.554 19.7356 263.778 20.669C267.002 21.5691 269.564 22.8359 271.464 24.4693C273.421 26.1028 274.515 28.003 274.745 30.1698H263.087C262.799 28.7697 261.763 27.6029 259.978 26.6695C258.251 25.7361 255.862 25.2694 252.811 25.2694C250.163 25.2694 247.946 25.6361 246.162 26.3695C244.435 27.1029 243.139 28.1196 242.276 29.4198C241.412 30.6865 240.98 32.1533 240.98 33.8201C240.98 35.4203 241.383 36.8704 242.189 38.1705C243.053 39.4706 244.348 40.4873 246.075 41.2207C247.86 41.9541 250.134 42.3208 252.897 42.3208C254.97 42.3208 256.755 42.1041 258.251 41.6708C259.748 41.2374 260.928 40.6374 261.792 39.8706C262.713 39.1039 263.289 38.2372 263.519 37.2704H275.177C274.947 39.4706 273.824 41.4041 271.809 43.0709C269.852 44.7044 267.232 45.9878 263.951 46.9212C260.727 47.8546 257.042 48.3213 252.897 48.3213Z" fill="#007BFF"/>
<path d="M290.147 46.7712C292.968 47.4046 296.537 47.7213 300.855 47.7213H307.59V41.7708H300.25C297.947 41.7708 296.163 41.4208 294.896 40.7207C293.687 39.9873 293.083 38.9539 293.083 37.6204L293.125 25.3194H307.59V20.219H293.143L293.169 12.5683H281.943L281.916 20.219H274.43V25.3194H281.898L281.857 37.1704C281.857 39.804 282.547 41.9041 283.929 43.4709C285.311 45.0044 287.383 46.1045 290.147 46.7712Z" fill="#007BFF"/>
<path d="M329.323 48.2213C323.911 48.2213 319.709 47.1879 316.715 45.1211C313.779 43.0542 312.311 39.9873 312.311 35.9203V20.169H324.314V36.5203C324.314 38.1872 325.12 39.5206 326.732 40.5207C328.344 41.4874 330.532 41.9708 333.295 41.9708C336.058 41.9708 338.304 41.4541 340.031 40.4207C341.815 39.3873 342.708 37.9871 342.708 36.2203V20.169H354.711V47.3713H345.212V41.0483C344.97 41.6235 344.683 42.1643 344.349 42.6709C343.14 44.5043 341.326 45.8878 338.908 46.8212C336.49 47.7546 333.468 48.2213 329.841 48.2213H329.323Z" fill="#007BFF"/>
<path d="M365.995 45.8711C369.68 47.4379 374.746 48.2213 381.194 48.2213C385.339 48.2213 388.937 47.8546 391.988 47.1212C395.039 46.3878 397.4 45.3711 399.069 44.071C400.796 42.7375 401.66 41.1707 401.66 39.3706C401.66 36.937 400.077 35.0036 396.91 33.5701C393.802 32.1366 389.484 31.2532 383.957 30.9199L379.812 30.6699C377.279 30.5032 375.437 30.1865 374.285 29.7198C373.192 29.2531 372.645 28.5864 372.645 27.7196C372.645 26.8195 373.335 26.0861 374.717 25.5194C376.099 24.9527 378.056 24.6694 380.589 24.6694C383.41 24.6694 385.569 25.0027 387.066 25.6694C388.563 26.3362 389.369 27.1362 389.484 28.0696H400.278C400.105 25.2361 398.234 23.0859 394.665 21.6191C391.096 20.1523 386.433 19.4189 380.676 19.4189C376.991 19.4189 373.71 19.7523 370.831 20.419C368.01 21.0524 365.794 22.0025 364.182 23.2692C362.57 24.536 361.764 26.1028 361.764 27.9696C361.764 30.3032 363.174 32.17 365.995 33.5701C368.816 34.9702 372.846 35.837 378.085 36.1703L382.23 36.4203C385.339 36.587 387.526 36.937 388.793 37.4704C390.117 38.0038 390.779 38.7205 390.779 39.6206C390.779 40.654 389.916 41.4708 388.188 42.0708C386.519 42.6709 384.245 42.9709 381.366 42.9709C377.912 42.9709 375.379 42.5875 373.767 41.8208C372.155 41.0541 371.263 40.204 371.09 39.2706H360.296C360.469 42.0708 362.368 44.271 365.995 45.8711Z" fill="#007BFF"/>
<path fill-rule="evenodd" clip-rule="evenodd" d="M50.1494 0C21.5363 0 -1.65918 13.4315 -1.65918 30C-1.65918 46.5685 21.5363 60 50.1494 60C78.7625 60 101.958 46.5685 101.958 30C101.958 13.4315 78.7625 0 50.1494 0ZM9.95804 30C9.95804 17.1467 27.9523 6.727 50.1494 6.727C72.3465 6.727 90.3408 17.1467 90.3408 30C90.3408 41.7302 75.3537 51.4335 55.8626 53.0397V47.9061L66.1784 45.7009C72.1402 44.4265 76.0996 41.1362 76.0996 37.4563V27.3485C76.0996 25.4908 73.499 23.985 70.291 23.985C67.083 23.985 64.4824 25.4908 64.4824 27.3485V37.4563C64.4824 38.3195 63.5536 39.0913 62.1552 39.3902L55.8626 40.7353V14.1116C55.8626 12.254 53.262 10.7481 50.054 10.7481C46.846 10.7481 44.2454 12.254 44.2454 14.1116V28.5433L38.1407 27.2384C36.7422 26.9395 35.8135 26.1677 35.8135 25.3045V20.9471C35.8135 19.0895 33.2129 17.5836 30.0049 17.5836C26.7969 17.5836 24.1963 19.0895 24.1963 20.9471V25.3045C24.1963 28.9844 28.1557 32.2747 34.1175 33.5491L44.2454 35.7141V53.0237C24.8473 51.3701 9.95804 41.6919 9.95804 30Z" fill="#007BFF"/>
</g>
<defs>
<clipPath id="clip0_70_1143">
<rect width="400" height="60" fill="white"/>
</clipPath>
</defs>
</svg>
