<svg width="400" height="60" viewBox="0 0 400 60" fill="none" xmlns="http://www.w3.org/2000/svg">
<path d="M156.697 13.5293H167.036V46.2772H156.697V13.5293Z" fill="#7828C8"/>
<path d="M201.261 21.0145C206.616 21.0145 210.911 21.9346 214.145 23.7747C217.379 25.6148 218.996 28.3438 218.996 31.9617V46.2772H209.055V32.7102C209.055 30.527 208.18 28.8896 206.431 27.798C204.681 26.6752 202.189 26.1138 198.955 26.1138C195.296 26.1138 192.407 26.7688 190.286 28.0787C188.165 29.3575 187.105 31.2132 187.105 33.6459V46.2772H177.163V21.2952H186.628V24.5232C188.271 23.3693 190.339 22.496 192.831 21.9034C195.323 21.3108 198.133 21.0145 201.261 21.0145Z" fill="#7828C8"/>
<path d="M266.62 21.2952L248.407 46.2772H238.148L219.935 21.2952H230.274L243.476 39.8212L257.076 21.2952H266.62Z" fill="#7828C8"/>
<path d="M307.616 33.9266C307.616 34.332 307.563 34.909 307.457 35.6575H274.134C274.717 37.4976 276.228 38.9635 278.667 40.0551C281.159 41.1155 284.234 41.6457 287.892 41.6457C292.558 41.6457 296.402 40.7412 299.424 38.9323L304.753 42.5346C302.844 43.8757 300.432 44.8893 297.516 45.5755C294.599 46.2616 291.312 46.6047 287.654 46.6047C282.988 46.6047 278.879 46.0589 275.327 44.9673C271.774 43.8757 269.017 42.3631 267.055 40.4294C265.147 38.4645 264.192 36.2501 264.192 33.7862C264.192 31.3535 265.12 29.1703 266.976 27.2366C268.885 25.2718 271.509 23.7435 274.849 22.6519C278.19 21.5603 281.954 21.0145 286.143 21.0145C290.278 21.0145 293.963 21.5603 297.197 22.6519C300.485 23.7123 303.03 25.225 304.832 27.1899C306.688 29.1235 307.616 31.3691 307.616 33.9266ZM286.143 25.6928C282.961 25.6928 280.257 26.2542 278.031 27.377C275.857 28.4686 274.531 29.9344 274.054 31.7746H298.152C297.728 29.9656 296.429 28.4998 294.255 27.377C292.081 26.2542 289.377 25.6928 286.143 25.6928Z" fill="#7828C8"/>
<path d="M322.653 24.9443C325.516 22.3244 330.553 21.4824 337.764 21.4824V26.1606C336.915 26.0671 336.147 26.0203 335.457 26.0203C331.587 26.0203 328.565 27.1119 326.391 28.453C324.217 29.7629 323.13 31.6654 323.13 34.1605V46.2772H313.189V21.2952H322.653V24.9443Z" fill="#7828C8"/>
<path d="M371.303 44.9205C370.137 45.4819 368.705 45.9029 367.009 46.1836C365.365 46.4643 363.615 46.6047 361.759 46.6047C357.094 46.6047 353.488 45.8874 350.943 44.4527C348.398 43.018 347.126 40.9284 347.126 38.1838V26.1606H340.127V21.4824H347.126V15.7749H357.067V21.4824H368.44V26.1606H357.067V38.0434C357.067 39.2598 357.571 40.1954 358.578 40.8504C359.586 41.4742 361.044 41.7861 362.952 41.7861C365.179 41.7861 367.035 41.443 368.52 40.7568L371.303 44.9205Z" fill="#7828C8"/>
<path fill-rule="evenodd" clip-rule="evenodd" d="M130.697 30C130.697 46.5685 107.864 60 79.6973 60C51.5307 60 28.6973 46.5685 28.6973 30C28.6973 13.4315 51.5307 0 79.6973 0C107.864 0 130.697 13.4315 130.697 30ZM114.669 30C114.669 41.3613 99.0121 50.5715 79.6979 50.5715C78.3588 50.5715 77.0374 50.5272 75.7375 50.441C93.3134 49.3545 107.011 40.6098 107.011 29.9832C107.011 19.4096 93.4497 10.6992 76.0002 9.54222C77.2153 9.46711 78.449 9.42859 79.6979 9.42859C99.0121 9.42859 114.669 18.6387 114.669 30ZM68.4043 44.4899C79.9307 43.2926 88.6972 37.2608 88.6972 30C88.6972 22.7392 79.9307 16.7074 68.4043 15.5101C69.799 15.3681 71.2334 15.2941 72.6972 15.2941C86.5043 15.2941 97.6972 21.8782 97.6972 30C97.6972 38.1218 86.5043 44.7059 72.6972 44.7059C71.2334 44.7059 69.799 44.6319 68.4043 44.4899Z" fill="#7828C8"/>
</svg>
