<svg width="400" height="60" viewBox="0 0 400 60" fill="none" xmlns="http://www.w3.org/2000/svg">
<path d="M160.673 49.5962L160.674 49.5961C159.581 48.9016 158.891 48.1393 158.827 47.2861L160.673 49.5962ZM160.673 49.5962L160.68 49.5998C161.883 50.3295 163.568 50.6748 165.699 50.6748H170.389H170.726V50.3376V49.8816V49.5444H170.389H168.028L167.205 49.4335L167.193 49.4318L167.181 49.4311C166.67 49.3995 166.128 49.1472 165.553 48.6171C165.069 48.0899 164.806 47.33 164.806 46.2904V28.4483C164.806 26.4993 164.131 24.8866 162.774 23.6399L162.774 23.6398L162.769 23.635C161.886 22.8575 160.513 22.2909 158.699 21.9061C156.92 21.4801 154.611 21.2708 151.781 21.2708C148.901 21.2708 146.252 22.009 143.84 23.4855C141.929 24.625 140.478 25.8518 139.507 27.1723V21.836V21.4988H139.17H133.787H133.45V21.836V50.3376V50.6748H133.787H139.17H139.507V50.3376V30.1014C139.507 29.4406 139.791 28.7036 140.418 27.8835C141.045 27.0639 141.997 26.1833 143.29 25.2439L143.292 25.242C145.848 23.3473 148.725 22.4011 151.935 22.4011C153.496 22.4011 154.786 22.5878 155.815 22.9497C156.792 23.34 157.516 23.9759 158.002 24.8623C158.492 25.7572 158.749 26.9268 158.749 28.3913V46.2904V46.3037L158.75 46.3171L158.826 47.2846L160.673 49.5962ZM128.647 13.1537L128.907 13.2279L129.036 12.9895L129.344 12.4195L129.55 12.0365L129.128 11.9321C123.874 10.6339 118.695 9.98414 113.591 9.98414C108.539 9.98414 104.691 10.861 102.096 12.6657C99.5035 14.4314 98.1825 16.7727 98.1825 19.6698C98.1825 21.485 98.6897 23.1034 99.7073 24.513C100.722 25.9182 102.232 27.0994 104.214 28.0665C105.972 28.9478 107.908 29.7513 110.021 30.4773L110.021 30.4773L110.026 30.479C112.129 31.1634 114.206 31.8288 116.258 32.4751L116.26 32.4758C118.352 33.1187 120.262 33.8174 121.991 34.5717C125.822 36.2532 127.633 38.5351 127.633 41.3881C127.633 42.7111 127.28 43.8629 126.58 44.8563C125.877 45.8528 124.813 46.7079 123.364 47.4118C120.499 48.7906 117.014 49.4874 112.899 49.4874C110.105 49.4874 107.362 49.1863 104.671 48.5842C102.027 47.9431 99.8824 47.1363 98.2283 46.1703L97.9834 46.0272L97.8005 46.2441L97.4161 46.7001L97.1445 47.0222L97.5183 47.2166C102.037 49.5652 107.476 50.7318 113.822 50.7318C117.223 50.7318 120.197 50.4454 122.739 49.8684L122.742 49.8676C125.358 49.2471 127.59 48.0809 129.431 46.366C131.29 44.6331 132.229 42.5309 132.229 40.077C132.229 37.6339 131.68 35.6037 130.554 34.0126C129.444 32.4072 127.991 31.1545 126.199 30.2561C124.439 29.3735 122.501 28.5883 120.385 27.8997C118.278 27.2138 116.17 26.604 114.062 26.0704C112.022 25.5031 110.136 24.8986 108.405 24.257C104.564 22.7576 102.778 20.6983 102.778 18.1307C102.778 15.9943 103.846 14.3105 106.066 13.0666C108.302 11.8141 111.441 11.1715 115.513 11.1715C119.63 11.1715 124.007 11.8308 128.647 13.1537ZM172.367 25.2703L172.365 25.2717C168.786 27.9639 167.002 31.7545 167.002 36.5998C167.002 41.4409 168.733 45.0712 172.225 47.425C175.68 49.7529 180.134 50.9028 185.563 50.9028C191.051 50.9028 195.587 49.578 199.144 46.9024C202.774 44.2111 204.585 40.4205 204.585 35.5738C204.585 30.7327 202.854 27.1024 199.362 24.7486C195.907 22.4203 191.426 21.2708 185.947 21.2708C180.509 21.2708 175.974 22.5963 172.367 25.2703ZM176.65 26.1794L176.652 26.1776C179.147 23.6621 182.288 22.4011 186.101 22.4011C189.93 22.4011 192.969 23.4823 195.252 25.6165C197.517 27.7337 198.682 31.0285 198.682 35.5738C198.682 40.0685 197.421 43.5465 194.936 46.0524C192.441 48.5298 189.3 49.7724 185.486 49.7724C181.657 49.7724 178.618 48.6912 176.335 46.5571C174.069 44.4394 172.905 41.1631 172.905 36.6568C172.905 32.1226 174.167 28.6462 176.65 26.1794ZM256.974 21.9071L256.597 22.1868L256.982 22.4548C257.701 22.9546 258.068 23.6811 258.068 24.6861C258.068 25.7211 257.781 26.597 257.215 27.3305L257.205 27.3438L257.196 27.358L246.365 44.7452L234.869 21.6855L234.776 21.4988H234.568H229.185H228.642L228.883 21.9853L231.645 27.5747L220.989 44.7441L209.494 21.6855L209.401 21.4988H209.192H203.81H203.263L203.508 21.9872L217.811 50.4888L217.904 50.6748H218.112H218.881H219.07L219.168 50.5139L232.385 28.9701L243.186 50.4889L243.279 50.6748H243.487H244.256H244.445L244.544 50.514L258.539 27.7127L258.539 27.7127L258.543 27.705C259.182 26.5998 259.511 25.4971 259.511 24.4011C259.511 24.0993 259.454 23.7857 259.348 23.4623C259.274 23.0734 259.022 22.6842 258.659 22.298C258.353 21.9207 258.049 21.6296 257.753 21.5198L257.582 21.4564L257.435 21.5651L256.974 21.9071Z" fill="#F31260" stroke="#F31260" stroke-width="0.674298"/>
<path d="M271.389 10.9428C272.81 9.32823 275.14 8.04843 278.406 7.93021L277.729 46.6833H277.729V46.6892C277.729 47.0865 277.895 47.4946 278.171 47.9038C278.818 48.8635 279.903 49.5537 281.369 50.0042C282.836 50.4548 284.712 50.6746 286.986 50.6746H289.369H289.707V50.3374V49.8814V49.5443H289.369H287.008L286.185 49.4333L286.173 49.4317L286.161 49.4309C285.65 49.3994 285.108 49.147 284.533 48.6169C284.049 48.0897 283.786 47.3298 283.786 46.2902V7.64197V7.30888L283.453 7.30484L278.753 7.24784L278.418 7.24377L278.418 7.25125C273.181 7.32362 269.308 8.23669 266.861 10.0493C264.334 11.8835 263.11 14.9526 263.11 19.1566V21.4986H261.832H261.495V21.8358V22.7568V23.094H261.832H263.11V50.3374V50.6746H263.447H268.829H269.167V50.3374V23.094H274.904H275.241V22.7568V21.8358V21.4986H274.904H269.167V19.1566C269.167 15.2717 269.933 12.5629 271.387 10.9456L271.387 10.9456L271.389 10.9428ZM312.321 46.4469V46.6892C312.321 47.1029 312.52 47.5094 312.839 47.9C313.16 48.2925 313.627 48.7008 314.226 49.1265C314.922 49.6613 315.892 50.0451 317.107 50.2971C318.329 50.5503 319.821 50.6746 321.578 50.6746H323.962H324.299V50.3374V49.8814V49.5443H323.962H321.601L320.777 49.4333L320.765 49.4317L320.753 49.4309C320.242 49.3994 319.701 49.147 319.125 48.6169C318.642 48.0897 318.378 47.3298 318.378 46.2902V27.1941C318.378 25.8405 317.633 24.5951 316.257 23.4571C315.349 22.7031 313.992 22.161 312.225 21.8046C310.452 21.447 308.237 21.2706 305.584 21.2706C300.83 21.2706 296.154 22.0561 291.557 23.6259L291.112 23.778L291.399 24.1507L291.707 24.5498L291.865 24.7551L292.104 24.6549C293.25 24.1746 295.068 23.6857 297.575 23.1927L297.579 23.192C300.127 22.663 302.333 22.401 304.2 22.401C306.078 22.401 307.577 22.5896 308.71 22.9547L308.71 22.9549L308.72 22.9576C309.881 23.2946 310.63 23.6916 311.028 24.118C311.469 24.5907 311.807 25.076 312.047 25.5733L312.055 25.5897L312.065 25.6052C312.35 26.064 312.396 26.375 312.337 26.5796C312.283 26.7394 312.244 26.8978 312.244 27.0373C312.244 27.1155 312.259 27.2308 312.321 27.3321V36.2975C311.279 36.2361 310.136 36.2055 308.89 36.2055C307.498 36.2055 305.98 36.2628 304.334 36.377C301.021 36.5295 298.281 36.8156 296.119 37.2378C293.965 37.6586 292.351 38.2206 291.318 38.9459C290.334 39.6376 289.669 40.3153 289.426 40.9888C289.211 41.5874 289.099 42.1584 289.099 42.699C289.099 43.1793 289.153 43.6588 289.26 44.1373C289.714 46.3913 290.903 48.098 292.821 49.2311C294.726 50.3568 297.325 50.9026 300.586 50.9026C305.773 50.9026 309.707 49.4337 312.321 46.4469ZM295.307 44.0287L295.308 44.0287L295.307 44.022C295.257 43.6533 295.233 43.3267 295.233 43.041C295.233 41.4588 295.785 40.2491 296.876 39.3703C297.41 38.9402 298.284 38.556 299.535 38.2374C300.779 37.9206 302.368 37.6757 304.305 37.5056C305.68 37.3924 307.055 37.3358 308.429 37.3358C309.748 37.3358 311.046 37.3681 312.321 37.4325V43.9894C312.177 45.1118 311.123 46.3803 308.94 47.7731C306.845 49.1043 304.473 49.7723 301.816 49.7723C299.819 49.7723 298.313 49.2823 297.253 48.3461C296.193 47.4104 295.532 45.988 295.307 44.0287ZM330.837 7.58496V7.24781H330.5H325.117H324.78V7.58496V50.3374V50.6746H325.117H330.5H330.837V50.3374V36.7554L332.547 35.2998L346.553 50.5654L346.653 50.6746H346.801H352.184H352.951L352.432 50.1095L336.139 32.3565L348.402 22.0944L349.114 21.4986H348.186H347.417H347.294L347.2 21.5771L330.837 35.2515V7.58496ZM382.348 48.2306L382.217 48.003L381.964 48.0751C378.002 49.2049 373.471 49.7723 368.369 49.7723C364.804 49.7723 361.946 48.6956 359.763 46.5634C357.649 44.4484 356.557 41.0955 356.557 36.4286C356.557 35.445 356.619 34.4934 356.743 33.5736H383.902H384.239V33.2365V33.2353V33.2342V33.2331V33.232V33.2309V33.2298V33.2287V33.2275V33.2264V33.2253V33.2242V33.2231V33.222V33.2209V33.2198V33.2186V33.2175V33.2164V33.2153V33.2142V33.2131V33.212V33.2108V33.2097V33.2086V33.2075V33.2064V33.2053V33.2042V33.2031V33.2019V33.2008V33.1997V33.1986V33.1975V33.1964V33.1953V33.1941V33.193V33.1919V33.1908V33.1897V33.1886V33.1875V33.1864V33.1852V33.1841V33.183V33.1819V33.1808V33.1797V33.1786V33.1774V33.1763V33.1752V33.1741V33.173V33.1719V33.1708V33.1697V33.1685V33.1674V33.1663V33.1652V33.1641V33.163V33.1619V33.1607V33.1596V33.1585V33.1574V33.1563V33.1552V33.1541V33.153V33.1518V33.1507V33.1496V33.1485V33.1474V33.1463V33.1452V33.144V33.1429V33.1418V33.1407V33.1396V33.1385V33.1374V33.1363V33.1351V33.134V33.1329V33.1318V33.1307V33.1296V33.1285V33.1273V33.1262V33.1251V33.124V33.1229V33.1218V33.1207V33.1196V33.1184V33.1173V33.1162V33.1151V33.114V33.1129V33.1118V33.1106V33.1095V33.1084V33.1073V33.1062V33.1051V33.104V33.1029V33.1017V33.1006V33.0995V33.0984V33.0973V33.0962V33.0951V33.0939V33.0928V33.0917V33.0906V33.0895V33.0884V33.0873V33.0862V33.085V33.0839V33.0828V33.0817V33.0806V33.0795V33.0784V33.0772V33.0761V33.075V33.0739V33.0728V33.0717V33.0706V33.0695V33.0683V33.0672V33.0661V33.065V33.0639V33.0628V33.0617V33.0605V33.0594V33.0583V33.0572V33.0561V33.055V33.0539V33.0528V33.0516V33.0505V33.0494V33.0483V33.0472V33.0461V33.045V33.0438V33.0427V33.0416V33.0405V33.0394V33.0383V33.0372V33.0361V33.0349V33.0338V33.0327V33.0316V33.0305V33.0294V33.0283V33.0271V33.026V33.0249V33.0238V33.0227V33.0216V33.0205V33.0194V33.0182V33.0171V33.016V33.0149V33.0138V33.0127V33.0116V33.0104V33.0093V33.0082V33.0071V33.006V33.0049V33.0038V33.0027V33.0015V33.0004V32.9993V32.9982V32.9971V32.996V32.9949V32.9937V32.9926V32.9915V32.9904V32.9893V32.9882V32.9871V32.986V32.9848V32.9837V32.9826V32.9815V32.9804V32.9793V32.9782V32.977V32.9759V32.9748V32.9737V32.9726V32.9715V32.9704V32.9692V32.9681V32.967V32.9659V32.9648V32.9637V32.9626V32.9615V32.9603V32.9592V32.9581V32.957V32.9559V32.9548V32.9537V32.9526V32.9514V32.9503V32.9492V32.9481V32.947V32.9459V32.9448V32.9436V32.9425V32.9414V32.9403V32.9392V32.9381V32.937V32.9359V32.9347V32.9336V32.9325V32.9314V32.9303V32.9292V32.9281V32.9269V32.9258V32.9247V32.9236V32.9225V32.9214V32.9203V32.9191V32.918V32.9169V32.9158V32.9147V32.9136V32.9125V32.9114V32.9102V32.9091V32.908V32.9069V32.9058V32.9047V32.9036V32.9025V32.9013V32.9002V32.8991V32.898V32.8969V32.8958V32.8947V32.8935V32.8924V32.8913V32.8902V32.8891V32.888V32.8869V32.8857V32.8846V32.8835V32.8824V32.8813V32.8802V32.8791V32.878V32.8768V32.8757V32.8746V32.8735V32.8724V32.8713V32.8702V32.869V32.8679V32.8668V32.8657V32.8646V32.8635V32.8624V32.8613V32.8601V32.859V32.8579V32.8568V32.8557V32.8546V32.8535V32.8523V32.8512V32.8501V32.849V32.8479V32.8468V32.8457V32.8446V32.8434V32.8423V32.8412V32.8401V32.839V32.8379V32.8368V32.8356V32.8345V32.8334V32.8323V32.8312V32.8301V32.829V32.8279V32.8267V32.8256V32.8245V32.8234V32.8223V32.8212V32.8201V32.8189V32.8178V32.8167V32.8156V32.8145V32.8134V32.8123V32.8112V32.81V32.8089V32.8078V32.8067V32.8056V32.8045V32.8034V32.8022V32.8011V32.8V32.7989V32.7978V32.7967V32.7956V32.7945V32.7933V32.7922V32.7911V32.79V32.7889V32.7878V32.7867V32.7855V32.7844V32.7833V32.7822V32.7811V32.78V32.7789V32.7778V32.7766V32.7755V32.7744V32.7733V32.7722V32.7711V32.77V32.7688V32.7677V32.7666V32.7655V32.7644V32.7633V32.7622V32.7611V32.7599V32.7588V32.7577V32.7566V32.7555V32.7544V32.7533V32.7521V32.751V32.7499V32.7488V32.7477V32.7466V32.7455V32.7444V32.7432V32.7421V32.741V32.7399V32.7388V32.7377V32.7366V32.7354V32.7343V32.7332V32.7321V32.731V32.7299V32.7288V32.7277V32.7265V32.7254V32.7243V32.7232V32.7221V32.721V32.7199V32.7187V32.7176V32.7165V32.7154V32.7143V32.7132V32.7121V32.711V32.7098V32.7087V32.7076V32.7065V32.7054V32.7043V32.7032V32.702V32.7009V32.6998V32.6987V32.6976V32.6965V32.6954V32.6943V32.6931V32.692V32.6909V32.6898V32.6887V32.6876V32.6865V32.6853V32.6842V32.6831V32.682V32.6809V32.6798V32.6787V32.6776V32.6764V32.6753V32.6742V32.6731V32.672V32.6709V32.6698V32.6686V32.6675V32.6664C384.239 28.913 382.753 26.0471 379.779 24.1181C376.843 22.2132 373.238 21.2706 368.984 21.2706C363.698 21.2706 359.314 22.5971 355.86 25.2745C352.384 27.9681 350.654 31.7582 350.654 36.5996C350.654 41.4344 352.303 45.0642 355.641 47.4207C358.942 49.7514 363.194 50.9026 368.369 50.9026C373.572 50.9026 378.243 50.3108 382.38 49.1224L382.795 49.0032L382.579 48.6296L382.348 48.2306ZM375.596 24.9307C377.295 26.5402 378.225 29.023 378.328 32.4433H356.937C357.578 29.3556 358.953 26.94 361.049 25.1731C363.297 23.3222 365.835 22.401 368.677 22.401C371.526 22.401 373.823 23.2508 375.596 24.9307Z" fill="#F31260" stroke="#F31260" stroke-width="0.674298"/>
<path d="M390.997 6.98678V8.49273H388.688V13.0745H386.495V8.49273H384.186V6.98678H390.997Z" fill="#F31260"/>
<path d="M400 6.89551V13.1019H397.807V10.09L396.201 11.5046H395.544L393.938 10.09V13.1019H391.745V6.89551H392.519L395.872 9.54234L399.226 6.89551H400Z" fill="#F31260"/>
<path fill-rule="evenodd" clip-rule="evenodd" d="M37.6571 40.4219L37.6237 59.9948L43.2051 60L43.2387 40.3365L53.42 58.4937L58.5739 56.9056L48.4622 38.8725L67.0663 52.6991L71.0179 49.7771L52.3343 35.8914L76.7693 43.409L78.9088 39.5875L54.4696 32.0686H80.9302V27.931H54.5342L78.9316 20.4614L76.8011 16.6372L52.5079 24.0749L71.1885 10.3683L67.2622 7.42758L48.3493 21.3046L58.541 3.08215L53.3852 1.49746L43.2742 19.5757L43.3076 0.0052437L37.7262 0L37.6926 19.6663L27.5098 1.50634L22.3559 3.0945L32.4666 21.1258L13.8643 7.30053L9.91261 10.2225L28.597 24.1087L4.16016 16.5906L2.02072 20.4121L26.46 27.931H0V32.0686H26.3985L1.99926 39.5388L4.12983 43.363L28.4226 35.9255L9.74248 49.6317L13.6688 52.5724L32.5799 38.6967L22.389 56.9176L27.5448 58.5023L37.6571 40.4219Z" fill="#F31260"/>
</svg>
