<svg width="400" height="60" viewBox="0 0 400 60" fill="none" xmlns="http://www.w3.org/2000/svg">
<g clip-path="url(#clip0_70_1056)">
<path d="M108.015 49.6131L112.506 48.8616V16.7998L108.015 16.0483V15.2969H128.227C135.813 15.2969 141.378 16.1151 144.922 17.7516C148.515 19.3547 150.312 21.4588 150.312 24.0638C150.312 25.8673 149.538 27.3201 147.991 28.4222C146.444 29.5243 144.473 30.3426 142.077 30.8769C139.532 31.4781 136.787 31.7954 133.842 31.8288V32.0792C137.485 32.1794 140.655 32.5468 143.35 33.1814C146.095 33.7825 148.365 34.7177 150.162 35.9868C152.009 37.2559 152.932 38.8757 152.932 40.8462C152.932 43.8186 151.11 46.1564 147.467 47.8597C143.824 49.5296 137.91 50.3645 129.725 50.3645H108.015V49.6131ZM128.227 31.3278C129.874 31.3278 131.397 31.0272 132.794 30.4261C134.241 29.7915 135.389 28.9232 136.238 27.821C137.136 26.6855 137.585 25.4331 137.585 24.0638C137.585 22.5943 137.136 21.2918 136.238 20.1562C135.389 19.0207 134.241 18.1357 132.794 17.5011C131.397 16.8666 129.874 16.5493 128.227 16.5493H124.859V31.3278H128.227ZM129.725 49.1121C132.819 49.1121 135.339 48.3773 137.286 46.9078C139.232 45.4383 140.205 43.4178 140.205 40.8462C140.205 38.2745 139.232 36.254 137.286 34.7845C135.339 33.315 132.819 32.5802 129.725 32.5802H124.859V49.1121H129.725Z" fill="#17C964"/>
<path d="M154.406 49.6131L158.897 48.8616V16.7998L154.406 16.0483V15.2969H164.138C168.63 15.2969 170.875 16.7998 170.875 19.8056V48.8616L175.367 49.6131V50.3645H154.406V49.6131Z" fill="#17C964"/>
<path d="M195.943 51.116C189.754 51.116 184.888 49.947 181.344 47.6092C177.851 45.238 176.104 41.9817 176.104 37.8404C176.104 33.699 177.851 30.4595 181.344 28.1216C184.888 25.7504 189.754 24.5647 195.943 24.5647C202.131 24.5647 206.972 25.7504 210.466 28.1216C214.009 30.4595 215.781 33.699 215.781 37.8404C215.781 41.9817 214.009 45.238 210.466 47.6092C206.972 49.947 202.131 51.116 195.943 51.116ZM195.943 50.114C197.939 50.114 199.611 49.1789 200.958 47.3086C202.356 45.4383 203.054 42.2823 203.054 37.8404C203.054 33.3985 202.356 30.2424 200.958 28.3721C199.611 26.5018 197.939 25.5667 195.943 25.5667C193.946 25.5667 192.249 26.5018 190.852 28.3721C189.504 30.2424 188.831 33.3985 188.831 37.8404C188.831 42.2823 189.504 45.4383 190.852 47.3086C192.249 49.1789 193.946 50.114 195.943 50.114Z" fill="#17C964"/>
<path d="M235.646 51.116C232.551 51.116 229.782 50.6651 227.336 49.7634C226.138 49.3292 225.165 48.8616 224.416 48.3606C223.618 49.0954 222.745 49.6632 221.796 50.0639C221.347 50.2643 220.848 50.448 220.299 50.615H218.428V42.0986H221.422C222.071 43.5013 223.019 44.8038 224.267 46.0061C226.912 48.5777 230.206 49.8635 234.149 49.8635C236.245 49.8635 237.817 49.5296 238.865 48.8616C239.963 48.1603 240.512 47.1583 240.512 45.8558C240.512 44.7537 239.763 43.8353 238.266 43.1005C236.819 42.3324 234.523 41.3972 231.379 40.2951C228.684 39.3934 226.488 38.5918 224.791 37.8905C223.144 37.1557 221.721 36.254 220.524 35.1852C219.376 34.0831 218.802 32.7973 218.802 31.3278C218.802 29.3239 220.074 27.7041 222.62 26.4684C225.215 25.1993 229.183 24.5647 234.523 24.5647C237.168 24.5647 239.613 25.0323 241.859 25.9675C242.957 26.4016 243.906 26.8525 244.704 27.3201C245.353 26.7189 246.226 26.1511 247.324 25.6168C248.173 25.2828 248.672 25.0991 248.822 25.0657H250.693V33.5821H247.699C246.95 32.146 246.027 30.8602 244.929 29.7247C242.433 27.1197 239.464 25.8172 236.02 25.8172C234.673 25.8172 233.525 26.1511 232.576 26.8191C231.628 27.4871 231.154 28.322 231.154 29.3239C231.154 30.593 231.953 31.6618 233.55 32.5301C235.147 33.3651 237.567 34.3336 240.811 35.4357C243.456 36.3375 245.553 37.139 247.1 37.8404C248.697 38.5083 250.044 39.3433 251.142 40.3452C252.29 41.3471 252.864 42.516 252.864 43.8519C252.864 48.6946 247.125 51.116 235.646 51.116Z" fill="#17C964"/>
<path d="M272.331 51.116C269.237 51.116 266.467 50.6651 264.021 49.7634C262.824 49.3292 261.85 48.8616 261.102 48.3606C260.303 49.0954 259.43 49.6632 258.482 50.0639C258.032 50.2643 257.533 50.448 256.984 50.615H255.113V42.0986H258.107C258.756 43.5013 259.704 44.8038 260.952 46.0061C263.597 48.5777 266.891 49.8635 270.834 49.8635C272.93 49.8635 274.502 49.5296 275.55 48.8616C276.648 48.1603 277.197 47.1583 277.197 45.8558C277.197 44.7537 276.449 43.8353 274.951 43.1005C273.504 42.3324 271.208 41.3972 268.064 40.2951C265.369 39.3934 263.173 38.5918 261.476 37.8905C259.829 37.1557 258.407 36.254 257.209 35.1852C256.061 34.0831 255.487 32.7973 255.487 31.3278C255.487 29.3239 256.76 27.7041 259.305 26.4684C261.9 25.1993 265.868 24.5647 271.208 24.5647C273.853 24.5647 276.299 25.0323 278.545 25.9675C279.643 26.4016 280.591 26.8525 281.389 27.3201C282.038 26.7189 282.912 26.1511 284.01 25.6168C284.858 25.2828 285.357 25.0991 285.507 25.0657H287.378V33.5821H284.384C283.635 32.146 282.712 30.8602 281.614 29.7247C279.119 27.1197 276.149 25.8172 272.705 25.8172C271.358 25.8172 270.21 26.1511 269.262 26.8191C268.314 27.4871 267.839 28.322 267.839 29.3239C267.839 30.593 268.638 31.6618 270.235 32.5301C271.832 33.3651 274.253 34.3336 277.497 35.4357C280.142 36.3375 282.238 37.139 283.785 37.8404C285.382 38.5083 286.73 39.3433 287.828 40.3452C288.975 41.3471 289.549 42.516 289.549 43.8519C289.549 48.6946 283.81 51.116 272.331 51.116Z" fill="#17C964"/>
<path d="M311.262 51.116C305.074 51.116 300.208 49.947 296.664 47.6092C293.171 45.238 291.424 41.9817 291.424 37.8404C291.424 33.699 293.171 30.4595 296.664 28.1216C300.208 25.7504 305.074 24.5647 311.262 24.5647C317.451 24.5647 322.292 25.7504 325.786 28.1216C329.329 30.4595 331.101 33.699 331.101 37.8404C331.101 41.9817 329.329 45.238 325.786 47.6092C322.292 49.947 317.451 51.116 311.262 51.116ZM311.262 50.114C313.259 50.114 314.931 49.1789 316.278 47.3086C317.676 45.4383 318.374 42.2823 318.374 37.8404C318.374 33.3985 317.676 30.2424 316.278 28.3721C314.931 26.5018 313.259 25.5667 311.262 25.5667C309.266 25.5667 307.569 26.5018 306.172 28.3721C304.824 30.2424 304.15 33.3985 304.15 37.8404C304.15 42.2823 304.824 45.4383 306.172 47.3086C307.569 49.1789 309.266 50.114 311.262 50.114Z" fill="#17C964"/>
<path d="M333.373 49.6131L337.865 48.8616V26.8191L333.373 26.0676V25.3162H340.111C343.055 25.3162 345.376 25.9508 347.073 27.2199C347.722 27.7208 348.271 28.3387 348.72 29.0734C349.468 28.1383 350.267 27.3869 351.115 26.8191C353.361 25.3162 355.931 24.5647 358.826 24.5647C361.721 24.5647 364.266 24.9989 366.462 25.8673C368.658 26.7022 370.355 27.8544 371.553 29.3239C372.301 28.3554 373.1 27.5705 373.948 26.9694C376.244 25.3663 378.814 24.5647 381.659 24.5647C384.304 24.5647 386.675 24.9321 388.771 25.6669C390.917 26.4016 392.564 27.4036 393.712 28.6727C394.91 29.9418 395.509 31.3278 395.509 32.8307V48.8616L400 49.6131V50.3645H390.268C385.777 50.3645 383.531 48.8616 383.531 45.8558V32.8307C383.531 30.6598 383.032 29.04 382.033 27.9713C381.035 26.8692 379.912 26.3181 378.665 26.3181C377.217 26.3181 375.745 26.9861 374.248 28.322C373.649 28.9566 373.125 29.6245 372.676 30.3259V48.8616L377.167 49.6131V50.3645H356.206V49.6131L360.698 48.8616V32.8307C360.698 30.6598 360.199 29.04 359.2 27.9713C358.202 26.8692 357.079 26.3181 355.832 26.3181C354.384 26.3181 352.912 26.9861 351.415 28.322C350.816 28.9566 350.292 29.6245 349.843 30.3259V48.8616L354.334 49.6131V50.3645H333.373V49.6131Z" fill="#17C964"/>
<path fill-rule="evenodd" clip-rule="evenodd" d="M47.0797 59.9303C46.5967 59.9939 46.0959 60.0151 45.5884 59.9893C29.9069 59.1931 15.0642 53.3967 6.60745 43.5948C-1.84941 33.7928 -1.92929 22.2926 4.88135 12.8065C5.87012 11.4293 8.01357 10.6012 10.2903 10.7168C16.134 11.0135 21.8613 12.0046 27.185 13.6386C31.2021 8.39699 37.1454 3.92552 44.3896 0.64256C46.2801 -0.214187 48.7528 -0.214187 50.6433 0.64256C57.7891 3.88094 63.6691 8.27578 67.6832 13.4255C72.805 11.9182 78.2838 11.0004 83.8691 10.7168C86.1457 10.6012 88.2892 11.4293 89.278 12.8065C96.0886 22.2926 96.0087 33.7928 87.5519 43.5948C79.0951 53.3967 64.2524 59.1931 48.5709 59.9893C48.0634 60.0151 47.5626 59.9939 47.0797 59.9303ZM58.569 53.9883C67.9686 51.8491 76.2827 47.5077 81.6319 41.3076C88.7522 33.0548 88.984 23.4043 83.4952 15.3296C78.9881 15.6222 74.5767 16.3936 70.4379 17.6115C72.457 21.3278 73.5583 25.3389 73.5583 29.5221C73.5583 39.0559 67.8381 47.6957 58.569 53.9883ZM61.6313 15.5526C58.2778 11.2444 53.4195 7.54218 47.5165 4.75676C41.487 7.60184 36.5476 11.4033 33.1883 15.8302C38.5349 18.1182 43.2847 21.128 47.0797 24.7954C51.0301 20.9778 56.0153 17.8727 61.6313 15.5526ZM50.9527 29.2321C54.3874 25.3114 59.0137 22.1432 64.3488 19.8159C65.8884 22.8632 66.7225 26.1275 66.7225 29.5221C66.7225 37.3588 62.2769 44.5016 54.968 49.882C56.9455 43.0855 55.7494 35.8468 50.9527 29.2321ZM43.2066 29.2321C39.9264 25.4877 35.5592 22.4296 30.5259 20.1349C29.0875 23.0906 28.3104 26.2457 28.3104 29.5221C28.3104 36.957 32.3117 43.7672 38.9633 49.0405C37.3184 42.4906 38.6074 35.5745 43.2066 29.2321ZM47.0797 52.1177C49.6458 46.6568 49.7513 40.6996 47.0797 35.052C44.408 40.6996 44.5135 46.6568 47.0797 52.1177ZM12.5274 41.3076C18.1196 47.7894 26.9521 52.2397 36.8778 54.2662C27.3654 47.9512 21.4746 39.197 21.4746 29.5221C21.4746 25.4239 22.5316 21.4909 24.4731 17.8386C20.1185 16.4892 15.4452 15.64 10.6641 15.3296C5.17532 23.4043 5.40716 33.0548 12.5274 41.3076Z" fill="#17C964"/>
</g>
<defs>
<clipPath id="clip0_70_1056">
<rect width="400" height="60" fill="white"/>
</clipPath>
</defs>
</svg>
