<svg width="400" height="60" viewBox="0 0 400 60" fill="none" xmlns="http://www.w3.org/2000/svg">
<path d="M154.413 46.7234C148.788 46.7234 143.873 45.766 139.669 43.8511C135.464 41.9362 132.197 39.2766 129.867 35.8723C127.538 32.4255 126.373 28.4255 126.373 23.8723C126.373 19.2766 127.566 15.234 129.953 11.7447C132.396 8.21277 135.833 5.46809 140.265 3.51064C144.754 1.51064 150.066 0.510639 156.203 0.510639C163.192 0.510639 168.987 1.76596 173.589 4.27659C178.192 6.78723 181.175 10.2553 182.538 14.6808H170.351C169.442 12.5957 167.794 10.9787 165.408 9.82978C163.021 8.6383 159.953 8.04255 156.203 8.04255C150.237 8.04255 145.635 9.46808 142.396 12.3191C139.157 15.1277 137.538 19 137.538 23.9362C137.538 28.8723 139.129 32.7021 142.311 35.4255C145.549 38.1064 149.924 39.4468 155.436 39.4468C160.834 39.4468 164.896 38.3617 167.624 36.1915C170.408 33.9787 172.084 31.0851 172.652 27.5106H157.567V21.383H183.646V45.9574H173.589L172.737 40.0851C170.805 42.2128 168.391 43.8511 165.493 45C162.595 46.1489 158.902 46.7234 154.413 46.7234Z" fill="#EA4335"/>
<path d="M189.735 45.9574V0H200.644V45.9574H189.735Z" fill="#EA4335"/>
<path d="M227.814 46.7234C223.723 46.7234 220.03 46.0213 216.734 44.617C213.496 43.2128 210.91 41.2766 208.979 38.8085C207.103 36.2979 206.166 33.4043 206.166 30.1277C206.166 26.8511 207.132 23.9787 209.064 21.5106C210.996 19 213.581 17.0426 216.82 15.6383C220.115 14.234 223.808 13.5319 227.899 13.5319C231.933 13.5319 235.57 14.234 238.808 15.6383C242.104 17.0426 244.689 19 246.564 21.5106C248.496 23.9787 249.462 26.8511 249.462 30.1277C249.462 33.4043 248.496 36.2979 246.564 38.8085C244.689 41.2766 242.104 43.2128 238.808 44.617C235.513 46.0213 231.848 46.7234 227.814 46.7234ZM227.814 39.6383C230.655 39.6383 233.127 38.8511 235.229 37.2766C237.331 35.6596 238.382 33.2766 238.382 30.1277C238.382 26.9787 237.331 24.617 235.229 23.0425C233.127 21.4255 230.683 20.617 227.899 20.617C225.001 20.617 222.501 21.4255 220.399 23.0425C218.354 24.617 217.331 26.9787 217.331 30.1277C217.331 33.2766 218.354 35.6596 220.399 37.2766C222.501 38.8511 224.973 39.6383 227.814 39.6383Z" fill="#EA4335"/>
<path d="M272.426 46.7234C268.676 46.7234 265.381 46.2766 262.54 45.383C259.699 44.4468 257.426 43.1702 255.722 41.5532C254.017 39.9362 252.994 38.0638 252.653 35.9362H263.648C263.989 37.1702 264.898 38.234 266.375 39.1277C267.909 39.9787 269.869 40.4043 272.256 40.4043C274.642 40.4043 276.375 40.0425 277.455 39.3191C278.591 38.5957 279.159 37.766 279.159 36.8298C279.159 35.4681 278.364 34.5532 276.773 34.0851C275.182 33.5745 272.966 33.0851 270.125 32.617C268.307 32.3191 266.46 31.9574 264.585 31.5319C262.71 31.1064 260.977 30.5745 259.386 29.9362C257.852 29.2553 256.602 28.4043 255.636 27.383C254.67 26.3191 254.187 25.0213 254.187 23.4894C254.187 20.6809 255.665 18.3191 258.619 16.4043C261.631 14.4894 265.835 13.5319 271.233 13.5319C276.233 13.5319 280.21 14.4043 283.165 16.1489C286.176 17.8936 287.966 20.2979 288.534 23.3617H278.222C277.597 21.0213 275.239 19.8511 271.148 19.8511C269.102 19.8511 267.511 20.1489 266.375 20.7447C265.296 21.3404 264.756 22.0851 264.756 22.9787C264.756 23.9149 265.58 24.6596 267.227 25.2128C268.875 25.766 271.063 26.2766 273.79 26.7447C276.745 27.2553 279.443 27.8298 281.887 28.4681C284.387 29.0638 286.375 29.9787 287.853 31.2128C289.33 32.4043 290.069 34.1277 290.069 36.383C290.125 38.3404 289.444 40.1064 288.023 41.6809C286.603 43.2553 284.557 44.4894 281.887 45.383C279.216 46.2766 276.063 46.7234 272.426 46.7234Z" fill="#EA4335"/>
<path d="M312.943 46.7234C309.193 46.7234 305.897 46.2766 303.057 45.383C300.216 44.4468 297.943 43.1702 296.238 41.5532C294.534 39.9362 293.511 38.0638 293.17 35.9362H304.164C304.505 37.1702 305.414 38.234 306.892 39.1277C308.426 39.9787 310.386 40.4043 312.773 40.4043C315.159 40.4043 316.892 40.0425 317.971 39.3191C319.108 38.5957 319.676 37.766 319.676 36.8298C319.676 35.4681 318.881 34.5532 317.29 34.0851C315.699 33.5745 313.483 33.0851 310.642 32.617C308.824 32.3191 306.977 31.9574 305.102 31.5319C303.227 31.1064 301.494 30.5745 299.903 29.9362C298.369 29.2553 297.119 28.4043 296.153 27.383C295.187 26.3191 294.704 25.0213 294.704 23.4894C294.704 20.6809 296.181 18.3191 299.136 16.4043C302.147 14.4894 306.352 13.5319 311.75 13.5319C316.75 13.5319 320.727 14.4043 323.682 16.1489C326.693 17.8936 328.483 20.2979 329.051 23.3617H318.738C318.113 21.0213 315.756 19.8511 311.665 19.8511C309.619 19.8511 308.028 20.1489 306.892 20.7447C305.812 21.3404 305.272 22.0851 305.272 22.9787C305.272 23.9149 306.096 24.6596 307.744 25.2128C309.392 25.766 311.579 26.2766 314.307 26.7447C317.261 27.2553 319.96 27.8298 322.403 28.4681C324.903 29.0638 326.892 29.9787 328.369 31.2128C329.847 32.4043 330.585 34.1277 330.585 36.383C330.642 38.3404 329.96 40.1064 328.54 41.6809C327.119 43.2553 325.074 44.4894 322.403 45.383C319.733 46.2766 316.579 46.7234 312.943 46.7234Z" fill="#EA4335"/>
<path d="M339.025 60L348.826 43.8511H346.269L329.82 14.2979H341.667L353.514 36.5745L365.872 14.2979H377.463L350.616 60H339.025Z" fill="#EA4335"/>
<path d="M46.0725 48.2396L89.0725 17.5253L82.0015 12.4745L39.0015 43.1888L46.0725 48.2396Z" fill="#EA4335"/>
<path d="M63.0725 17.5253L46.0725 29.6682L39.0015 24.6174L56.0015 12.4745L63.0725 17.5253Z" fill="#EA4335"/>
<path d="M72.0725 48.2396L89.0725 36.0967L82.0015 31.046L65.0015 43.1888L72.0725 48.2396Z" fill="#EA4335"/>
<path fill-rule="evenodd" clip-rule="evenodd" d="M22.5371 60V0H106.537V60H22.5371ZM32.5371 7.14286H96.5371V52.8571H32.5371V7.14286Z" fill="#EA4335"/>
</svg>
