<svg width="400" height="60" viewBox="0 0 400 60" fill="none" xmlns="http://www.w3.org/2000/svg">
<path fill-rule="evenodd" clip-rule="evenodd" d="M171.121 45.6593L150.427 26.1729H141.011V45.6593H134.148V0H158.354C160.942 0 163.372 0.297178 165.642 0.891535C167.911 1.46467 169.897 2.26068 171.6 3.27958C173.302 4.29847 174.632 5.4978 175.59 6.87756C176.583 8.23609 177.079 9.69014 177.079 11.2397V14.9332C177.079 16.4828 176.583 17.9475 175.59 19.3272C174.632 20.6857 173.302 21.8745 171.6 22.8933C169.897 23.9122 167.911 24.7189 165.642 25.3132C163.372 25.8864 160.942 26.1729 158.354 26.1729L179.048 45.6593H171.121ZM170.217 11.2397C170.217 10.2208 169.897 9.27621 169.259 8.4059C168.621 7.51437 167.752 6.73958 166.652 6.08154C165.553 5.40228 164.258 4.8716 162.769 4.48952C161.315 4.10743 159.737 3.91639 158.034 3.91639H141.011V22.2565H158.034C159.737 22.2565 161.315 22.0655 162.769 21.6834C164.258 21.3013 165.553 20.7813 166.652 20.1232C167.752 19.444 168.621 18.6692 169.259 17.7989C169.897 16.9073 170.217 15.9521 170.217 14.9332V11.2397Z" fill="#006FEE"/>
<path fill-rule="evenodd" clip-rule="evenodd" d="M220.946 36.7121C220.946 38.0282 220.521 39.27 219.669 40.4375C218.854 41.605 217.719 42.6239 216.265 43.4942C214.811 44.3645 213.108 45.0544 211.158 45.5638C209.207 46.052 207.132 46.2962 204.934 46.2962H200.571C198.373 46.2962 196.298 46.052 194.347 45.5638C192.397 45.0544 190.694 44.3645 189.24 43.4942C187.786 42.6239 186.634 41.605 185.782 40.4375C184.967 39.27 184.559 38.0282 184.559 36.7121V22.0018C184.559 20.6857 184.967 19.444 185.782 18.2765C186.634 17.109 187.786 16.0901 189.24 15.2198C190.694 14.3495 192.397 13.6702 194.347 13.182C196.298 12.6725 198.373 12.4178 200.571 12.4178H204.934C207.132 12.4178 209.207 12.6725 211.158 13.182C213.108 13.6702 214.811 14.3495 216.265 15.2198C217.719 16.0901 218.854 17.109 219.669 18.2765C220.521 19.444 220.946 20.6857 220.946 22.0018V36.7121ZM214.403 21.7789C214.403 20.9935 214.155 20.2612 213.658 19.5819C213.162 18.8814 212.488 18.2765 211.637 17.767C210.785 17.2576 209.775 16.8543 208.604 16.5571C207.469 16.2599 206.246 16.1113 204.934 16.1113H200.571C199.259 16.1113 198.018 16.2599 196.848 16.5571C195.713 16.8543 194.72 17.2576 193.868 17.767C193.017 18.2765 192.343 18.8814 191.847 19.5819C191.35 20.2612 191.102 20.9935 191.102 21.7789V36.935C191.102 37.7204 191.35 38.4634 191.847 39.1639C192.343 39.8431 193.017 40.4375 193.868 40.9469C194.72 41.4564 195.713 41.8597 196.848 42.1569C198.018 42.4541 199.259 42.6026 200.571 42.6026H204.934C206.246 42.6026 207.469 42.4541 208.604 42.1569C209.775 41.8597 210.785 41.4564 211.637 40.9469C212.488 40.4375 213.162 39.8431 213.658 39.1639C214.155 38.4634 214.403 37.7204 214.403 36.935V21.7789Z" fill="#006FEE"/>
<path fill-rule="evenodd" clip-rule="evenodd" d="M263.696 40.4375C264.547 39.27 264.973 38.0282 264.973 36.7121V22.0018C264.973 20.6857 264.547 19.444 263.696 18.2765C262.88 17.109 261.745 16.0901 260.291 15.2198C258.837 14.3495 257.135 13.6702 255.184 13.182C253.234 12.6725 251.159 12.4178 248.96 12.4178H247.311C244.864 12.4178 242.594 12.715 240.502 13.3093C238.409 13.9037 236.618 14.7316 235.129 15.7929V0H228.585V36.7121C228.585 38.0282 228.993 39.27 229.809 40.4375C230.66 41.605 231.813 42.6239 233.267 43.4942C234.721 44.3645 236.423 45.0544 238.374 45.5638C240.324 46.052 242.399 46.2962 244.598 46.2962H248.96C251.159 46.2962 253.234 46.052 255.184 45.5638C257.135 45.0544 258.837 44.3645 260.291 43.4942C261.745 42.6239 262.88 41.605 263.696 40.4375ZM257.685 19.5819C258.181 20.2612 258.429 20.9935 258.429 21.7789V36.935C258.429 37.7204 258.181 38.4634 257.685 39.1639C257.188 39.8431 256.514 40.4375 255.663 40.9469C254.812 41.4564 253.801 41.8597 252.631 42.1569C251.496 42.4541 250.272 42.6026 248.96 42.6026H244.598C243.286 42.6026 242.045 42.4541 240.874 42.1569C239.739 41.8597 238.746 41.4564 237.895 40.9469C237.044 40.4375 236.37 39.8431 235.874 39.1639C235.377 38.4634 235.129 37.7204 235.129 36.935V21.7789C235.129 20.9935 235.377 20.2612 235.874 19.5819C236.37 18.8814 237.044 18.2765 237.895 17.767C238.746 17.2576 239.739 16.8543 240.874 16.5571C242.045 16.2599 243.286 16.1113 244.598 16.1113H248.96C250.272 16.1113 251.496 16.2599 252.631 16.5571C253.801 16.8543 254.812 17.2576 255.663 17.767C256.514 18.2765 257.188 18.8814 257.685 19.5819Z" fill="#006FEE"/>
<path fill-rule="evenodd" clip-rule="evenodd" d="M308.999 36.7121C308.999 38.0282 308.574 39.27 307.723 40.4375C306.907 41.605 305.772 42.6239 304.318 43.4942C302.864 44.3645 301.162 45.0544 299.211 45.5638C297.26 46.052 295.186 46.2962 292.987 46.2962H288.625C286.426 46.2962 284.351 46.052 282.4 45.5638C280.45 45.0544 278.748 44.3645 277.293 43.4942C275.839 42.6239 274.687 41.605 273.836 40.4375C273.02 39.27 272.612 38.0282 272.612 36.7121V22.0018C272.612 20.6857 273.02 19.444 273.836 18.2765C274.687 17.109 275.839 16.0901 277.293 15.2198C278.748 14.3495 280.45 13.6702 282.4 13.182C284.351 12.6725 286.426 12.4178 288.625 12.4178H292.987C295.186 12.4178 297.26 12.6725 299.211 13.182C301.162 13.6702 302.864 14.3495 304.318 15.2198C305.772 16.0901 306.907 17.109 307.723 18.2765C308.574 19.444 308.999 20.6857 308.999 22.0018V36.7121ZM302.456 21.7789C302.456 20.9935 302.208 20.2612 301.711 19.5819C301.215 18.8814 300.541 18.2765 299.69 17.767C298.839 17.2576 297.828 16.8543 296.658 16.5571C295.523 16.2599 294.299 16.1113 292.987 16.1113H288.625C287.312 16.1113 286.071 16.2599 284.901 16.5571C283.766 16.8543 282.773 17.2576 281.922 17.767C281.07 18.2765 280.397 18.8814 279.9 19.5819C279.404 20.2612 279.155 20.9935 279.155 21.7789V36.935C279.155 37.7204 279.404 38.4634 279.9 39.1639C280.397 39.8431 281.07 40.4375 281.922 40.9469C282.773 41.4564 283.766 41.8597 284.901 42.1569C286.071 42.4541 287.312 42.6026 288.625 42.6026H292.987C294.299 42.6026 295.523 42.4541 296.658 42.1569C297.828 41.8597 298.839 41.4564 299.69 40.9469C300.541 40.4375 301.215 39.8431 301.711 39.1639C302.208 38.4634 302.456 37.7204 302.456 36.935V21.7789Z" fill="#006FEE"/>
<path d="M330.843 44.9907C332.616 45.4365 334.495 45.6593 336.481 45.6593H342.44V41.934H336.481C335.382 41.934 334.354 41.8172 333.396 41.5837C332.438 41.329 331.605 40.9894 330.896 40.5648C330.186 40.1403 329.619 39.6521 329.193 39.1002C328.803 38.5271 328.608 37.9115 328.608 37.2534V16.78H342.44V13.0546H328.608V4.58504L322.065 5.22185V13.0546H312.276V16.78H322.065V37.0624C322.065 38.2511 322.437 39.3655 323.182 40.4056C323.962 41.4458 324.991 42.3585 326.267 43.1439C327.58 43.9293 329.105 44.5449 330.843 44.9907Z" fill="#006FEE"/>
<path d="M368.911 26.6824L384.605 45.6593H391.999L372.582 22.1929L390.882 0H383.487L368.911 17.6715L354.282 0H346.887L365.187 22.1929L345.77 45.6593H353.218L368.911 26.6824Z" fill="#006FEE"/>
<path fill-rule="evenodd" clip-rule="evenodd" d="M60.7537 0C47.7022 0 36.2897 3.0637 27.4376 6.77012C18.5996 10.4707 12.0591 14.9157 8.66572 17.9694C7.94879 18.6146 7.80123 19.4282 8.27018 20.1504L25.6437 46.907L15.2968 57.6162L22.184 60L33.4866 48.3015C34.0908 47.6762 34.1879 46.9205 33.7508 46.2472L16.4571 19.6135C19.6022 17.0671 24.9748 13.6126 31.9981 10.6719C39.9706 7.33377 49.8147 4.76179 60.7537 4.76179C71.0927 4.76179 78.6094 6.35501 84.0997 8.78853C89.6159 11.2335 93.3866 14.6607 95.8258 18.6145C100.303 25.8718 100.098 34.6049 98.2834 41.0905H63.53L57.6175 31.4596C61.7605 29.6961 64.4863 26.8419 64.4863 23.5709C64.4863 18.109 56.8862 13.8092 47.7791 13.8092C38.6719 13.8092 31.0719 18.109 31.0719 23.5709C31.0719 29.0328 38.6719 33.3325 47.7791 33.3325C48.6092 33.3325 49.4267 33.2968 50.2271 33.2278L57.0198 44.2926C57.595 45.2296 59.0858 45.8523 60.7537 45.8523H101.581C103.462 45.8523 105.086 45.0636 105.473 43.9619C107.97 36.8639 108.922 26.0968 103.289 16.9651C100.447 12.3585 95.872 8.08115 88.8344 4.96181C81.771 1.83099 72.5262 0 60.7537 0ZM39.0277 23.5709C39.0277 20.8802 42.8258 18.571 47.7791 18.571C52.7323 18.571 56.5305 20.8802 56.5305 23.5709C56.5305 26.2615 52.7323 28.5707 47.7791 28.5707C42.8258 28.5707 39.0277 26.2615 39.0277 23.5709Z" fill="#006FEE"/>
</svg>
