<svg width="400" height="60" viewBox="0 0 400 60" fill="none" xmlns="http://www.w3.org/2000/svg">
<path d="M51.1433 60H15.7671L51.1433 30.4761H86.5195L51.1433 60Z" fill="#F5A524"/>
<path d="M38.2 0H74.439L38.2 30.4763H1.96094L38.2 0Z" fill="#F5A524"/>
<path d="M158.689 25.6842C158.689 27.4948 157.898 29.1922 156.316 30.7764C154.793 32.3607 152.362 33.6378 149.023 34.6077C145.742 35.5777 141.583 36.0626 136.545 36.0626H126.263V49.0599H113.961V15.2088H136.545C141.29 15.2088 145.332 15.6615 148.671 16.5668C152.011 17.472 154.5 18.7168 156.141 20.301C157.84 21.8853 158.689 23.6797 158.689 25.6842ZM136.017 30.5825C139.415 30.5825 141.934 30.1621 143.575 29.3215C145.215 28.4486 146.035 27.2361 146.035 25.6842C146.035 22.3864 142.696 20.7375 136.017 20.7375H126.263V30.5825H136.017Z" fill="#F5A524"/>
<path d="M176.211 26.3632C177.793 24.9406 179.843 23.8252 182.362 23.0169C184.94 22.2086 187.869 21.8045 191.15 21.8045V28.9335H187.898C184.032 28.9335 181.103 29.4347 179.111 30.437C177.178 31.4392 176.211 33.1851 176.211 35.6747V49.0599H163.909V22.1924H176.211V26.3632Z" fill="#F5A524"/>
<path d="M217.538 49.4964C212.851 49.4964 208.633 48.9306 204.884 47.799C201.135 46.635 198.176 45.0023 196.009 42.9007C193.9 40.7992 192.845 38.3743 192.845 35.6262C192.845 32.878 193.929 30.4531 196.097 28.3516C198.323 26.25 201.34 24.6335 205.148 23.5019C208.956 22.3379 213.203 21.756 217.889 21.756C222.576 21.756 226.823 22.3379 230.631 23.5019C234.439 24.6335 237.427 26.25 239.594 28.3516C241.821 30.4531 242.934 32.878 242.934 35.6262C242.934 38.3743 241.791 40.7992 239.507 42.9007C237.28 45.0023 234.234 46.635 230.368 47.799C226.56 48.9306 222.283 49.4964 217.538 49.4964ZM217.538 43.5797C219.764 43.5797 221.844 43.2887 223.777 42.7067C225.769 42.0925 227.351 41.1872 228.522 39.9909C229.694 38.7946 230.28 37.3397 230.28 35.6262C230.28 33.072 229.05 31.1159 226.589 29.758C224.187 28.3677 221.229 27.6726 217.714 27.6726C214.199 27.6726 211.24 28.3677 208.838 29.758C206.495 31.1159 205.323 33.072 205.323 35.6262C205.323 38.1803 206.466 40.1526 208.751 41.5428C211.094 42.9007 214.023 43.5797 217.538 43.5797Z" fill="#F5A524"/>
<path d="M260.745 43.6767H273.956V49.0599H248.443V11.0381H260.745V43.6767Z" fill="#F5A524"/>
<path d="M283.5 18.9916C281.332 18.9916 279.516 18.6198 278.052 17.8762C276.646 17.1002 275.943 16.1465 275.943 15.0149C275.943 13.8833 276.646 12.9456 278.052 12.202C279.516 11.4261 281.332 11.0381 283.5 11.0381C285.668 11.0381 287.454 11.4261 288.86 12.202C290.325 12.9456 291.057 13.8833 291.057 15.0149C291.057 16.1465 290.325 17.1002 288.86 17.8762C287.454 18.6198 285.668 18.9916 283.5 18.9916ZM289.563 22.1924V49.0599H277.261V22.1924H289.563Z" fill="#F5A524"/>
<path d="M325.181 21.8045C330.98 21.8045 335.667 22.8229 339.24 24.8598C342.814 26.8643 344.601 29.6772 344.601 33.2983V49.0599H332.298V34.2197C332.298 32.0859 331.332 30.4531 329.399 29.3215C327.465 28.1576 324.829 27.5756 321.49 27.5756C318.092 27.5756 315.397 28.1576 313.405 29.3215C311.472 30.4531 310.506 32.0859 310.506 34.2197V49.0599H298.203V22.1924H310.506V25.5387C312.146 24.3748 314.226 23.4695 316.745 22.8229C319.322 22.1439 322.134 21.8045 325.181 21.8045Z" fill="#F5A524"/>
<path d="M398.04 35.0442C398.04 36.0141 397.923 36.8871 397.689 37.663H362.099C362.392 39.6029 363.623 41.1225 365.79 42.2218C367.958 43.321 370.623 43.8707 373.787 43.8707C378.356 43.8707 381.608 42.7876 383.541 40.6214H396.81C395.404 43.2079 392.709 45.3418 388.725 47.023C384.742 48.6719 379.85 49.4964 374.05 49.4964C369.364 49.4964 365.146 48.9306 361.396 47.799C357.706 46.635 354.806 45.0023 352.697 42.9007C350.646 40.7992 349.621 38.3743 349.621 35.6262C349.621 32.8457 350.646 30.4046 352.697 28.3031C354.747 26.2015 357.618 24.585 361.309 23.4534C364.999 22.3218 369.247 21.756 374.05 21.756C378.678 21.756 382.808 22.3056 386.441 23.4049C390.131 24.5041 392.973 26.0722 394.964 28.1091C397.015 30.1136 398.04 32.4253 398.04 35.0442ZM385.298 33.1043C385.24 31.3584 384.097 29.9682 381.871 28.9335C379.645 27.8666 376.921 27.3331 373.699 27.3331C370.653 27.3331 368.075 27.8504 365.966 28.885C363.916 29.8873 362.656 31.2937 362.187 33.1043H385.298Z" fill="#F5A524"/>
</svg>
