<svg width="322" height="60" viewBox="0 0 322 60" fill="none" xmlns="http://www.w3.org/2000/svg">
<path d="M140.449 8.95938C141.569 9.92423 143.275 10.4067 145.57 10.4067C147.864 10.4067 149.543 9.92423 150.606 8.95938C151.669 7.94858 152.201 6.70805 152.201 5.23779C152.201 3.67564 151.669 2.41214 150.606 1.44728C149.543 0.482427 147.864 0 145.57 0C143.275 0 141.569 0.482427 140.449 1.44728C139.386 2.41214 138.855 3.67564 138.855 5.23779C138.855 6.70805 139.386 7.94858 140.449 8.95938Z" fill="#EA4335"/>
<path d="M87.1641 14.8863L101.434 52.309H120.152L132.491 14.8863H121.243L111.959 44.4523H109.977L99.1673 14.8863H87.1641Z" fill="#EA4335"/>
<path d="M178.742 53.4806C172.475 53.4806 167.55 52.4009 163.969 50.2414C160.443 48.036 158.597 45.0036 158.429 41.1442H168.921C169.089 42.4307 169.956 43.6023 171.523 44.659C173.09 45.7158 175.552 46.2442 178.91 46.2442C181.708 46.2442 183.918 45.8307 185.541 45.0036C187.22 44.1766 188.059 43.051 188.059 41.6266C188.059 40.3861 187.416 39.3983 186.129 38.6632C184.897 37.928 182.771 37.4456 179.749 37.2159L175.72 36.8713C170.628 36.4118 166.711 35.2172 163.969 33.2875C161.227 31.3578 159.856 28.7849 159.856 25.5687C159.856 22.9957 160.639 20.8363 162.206 19.0904C163.773 17.3444 165.927 16.035 168.669 15.162C171.467 14.2431 174.657 13.7837 178.238 13.7837C183.834 13.7837 188.367 14.7945 191.836 16.8161C195.306 18.8377 197.125 21.8011 197.292 25.7065H186.8C186.688 24.42 185.905 23.3173 184.45 22.3984C182.995 21.4795 180.896 21.0201 178.154 21.0201C175.692 21.0201 173.79 21.4106 172.447 22.1917C171.104 22.9728 170.432 23.9836 170.432 25.2241C170.432 26.4187 170.964 27.3376 172.027 27.9808C173.146 28.6241 174.937 29.0605 177.399 29.2903L181.428 29.6349C186.8 30.0943 190.997 31.3119 194.019 33.2875C197.097 35.2632 198.635 37.928 198.635 41.282C198.635 43.7631 197.796 45.9225 196.117 47.7604C194.494 49.5522 192.2 50.9536 189.234 51.9644C186.268 52.9752 182.771 53.4806 178.742 53.4806Z" fill="#EA4335"/>
<path d="M205.42 8.95938C206.539 9.92423 208.246 10.4067 210.54 10.4067C212.835 10.4067 214.513 9.92423 215.577 8.95938C216.64 7.94858 217.172 6.70805 217.172 5.23779C217.172 3.67564 216.64 2.41214 215.577 1.44728C214.513 0.482427 212.835 0 210.54 0C208.246 0 206.539 0.482427 205.42 1.44728C204.357 2.41214 203.825 3.67564 203.825 5.23779C203.825 6.70805 204.357 7.94858 205.42 8.95938Z" fill="#EA4335"/>
<path fill-rule="evenodd" clip-rule="evenodd" d="M249.085 53.6184C245.056 53.6184 241.502 53.09 238.424 52.0333C235.347 50.9766 232.745 49.5522 230.618 47.7604C228.492 45.9225 226.869 43.855 225.75 41.5577C224.686 39.2604 224.155 36.8713 224.155 34.3902V32.9429C224.155 30.37 224.714 27.9349 225.834 25.6376C227.009 23.2944 228.66 21.2268 230.786 19.435C232.968 17.5971 235.599 16.1728 238.676 15.162C241.754 14.1053 245.224 13.5769 249.085 13.5769C252.946 13.5769 256.415 14.1053 259.493 15.162C262.571 16.1728 265.173 17.5971 267.299 19.435C269.482 21.2268 271.133 23.2944 272.252 25.6376C273.371 27.9349 273.931 30.37 273.931 32.9429V34.3902C273.931 36.8713 273.371 39.2604 272.252 41.5577C271.189 43.855 269.594 45.9225 267.467 47.7604C265.341 49.5522 262.739 50.9766 259.661 52.0333C256.583 53.09 253.058 53.6184 249.085 53.6184ZM249.085 45.4171C251.939 45.4171 254.345 44.9117 256.303 43.9009C258.262 42.8442 259.745 41.4429 260.752 39.6969C261.76 37.905 262.263 35.8834 262.263 33.6321C262.263 31.3348 261.732 29.3132 260.668 27.5673C259.661 25.7754 258.15 24.3741 256.136 23.3633C254.177 22.3065 251.827 21.7782 249.085 21.7782C246.343 21.7782 243.964 22.3065 241.95 23.3633C239.991 24.3741 238.48 25.7754 237.417 27.5673C236.354 29.3132 235.822 31.3348 235.822 33.6321C235.822 35.8834 236.326 37.905 237.333 39.6969C238.397 41.4429 239.907 42.8442 241.866 43.9009C243.825 44.9117 246.231 45.4171 249.085 45.4171Z" fill="#EA4335"/>
<path d="M290.191 21.4336C289.789 22.2569 289.454 23.1484 289.183 24.1083V14.8863H279.95V52.309H291.618V30.324C291.618 27.8889 292.485 25.9592 294.22 24.5349C296.01 23.0646 298.333 22.3295 301.187 22.3295C303.985 22.3295 306.167 23.0417 307.734 24.466C309.357 25.8903 310.168 27.7511 310.168 30.0484V52.309H321.836V30.8754C321.836 25.1781 320.437 20.9052 317.639 18.0566C314.841 15.162 310.728 13.7147 305.3 13.7147H304.796C301.159 13.7147 298.109 14.358 295.647 15.6444C293.24 16.9309 291.422 18.8606 290.191 21.4336Z" fill="#EA4335"/>
<path d="M141.289 22.0539V52.309H152.956V14.8863H134.909V22.0539H141.289Z" fill="#EA4335"/>
<path d="M206.259 22.0539V52.309H217.927V14.8863H199.88V22.0539H206.259Z" fill="#EA4335"/>
<mask id="path-2-inside-1_70_1132" fill="white">
<path fill-rule="evenodd" clip-rule="evenodd" d="M36.7025 60C56.8822 60 73.241 46.5685 73.241 30C73.241 13.4315 56.8822 0 36.7025 0C16.5229 0 0.164062 13.4315 0.164062 30C0.164062 46.5685 16.5229 60 36.7025 60ZM63.5924 26.8865C60.1854 30.1576 55.3864 32.1948 50.0695 32.1948C39.7336 32.1948 31.3546 24.4963 31.3546 14.9997C31.3546 12.6105 31.885 10.3351 32.8434 8.26746C19.8916 9.88256 9.9668 19.0644 9.9668 30.1496C9.9668 33.3839 10.8117 36.4562 12.3302 39.2258C13.8705 38.0491 16.0354 37.317 18.433 37.317C23.1088 37.317 26.8993 40.1015 26.8993 43.5365C26.8993 45.843 25.1901 47.8563 22.6515 48.9301C26.7908 51.0554 31.6832 52.2837 36.9251 52.2837C51.8137 52.2837 63.8833 42.3739 63.8833 30.1496C63.8833 29.0409 63.784 27.9514 63.5924 26.8865Z"/>
</mask>
<path fill-rule="evenodd" clip-rule="evenodd" d="M36.7025 60C56.8822 60 73.241 46.5685 73.241 30C73.241 13.4315 56.8822 0 36.7025 0C16.5229 0 0.164062 13.4315 0.164062 30C0.164062 46.5685 16.5229 60 36.7025 60ZM63.5924 26.8865C60.1854 30.1576 55.3864 32.1948 50.0695 32.1948C39.7336 32.1948 31.3546 24.4963 31.3546 14.9997C31.3546 12.6105 31.885 10.3351 32.8434 8.26746C19.8916 9.88256 9.9668 19.0644 9.9668 30.1496C9.9668 33.3839 10.8117 36.4562 12.3302 39.2258C13.8705 38.0491 16.0354 37.317 18.433 37.317C23.1088 37.317 26.8993 40.1015 26.8993 43.5365C26.8993 45.843 25.1901 47.8563 22.6515 48.9301C26.7908 51.0554 31.6832 52.2837 36.9251 52.2837C51.8137 52.2837 63.8833 42.3739 63.8833 30.1496C63.8833 29.0409 63.784 27.9514 63.5924 26.8865Z" fill="#EA4335"/>
<path d="M63.5924 26.8865L66.2237 26.413L65.34 21.5023L61.7408 24.958L63.5924 26.8865ZM32.8434 8.26746L35.269 9.39183L37.2965 5.01789L32.5126 5.61446L32.8434 8.26746ZM12.3302 39.2258L9.98586 40.5111L11.4812 43.2385L13.9531 41.3504L12.3302 39.2258ZM22.6515 48.9301L21.61 46.4678L16.3423 48.6961L21.4304 51.3085L22.6515 48.9301ZM70.5674 30C70.5674 44.6231 55.9228 57.3265 36.7025 57.3265V62.6735C57.8415 62.6735 75.9145 48.5139 75.9145 30H70.5674ZM36.7025 2.67355C55.9228 2.67355 70.5674 15.3769 70.5674 30H75.9145C75.9145 11.4861 57.8415 -2.67355 36.7025 -2.67355V2.67355ZM2.83761 30C2.83761 15.3769 17.4823 2.67355 36.7025 2.67355V-2.67355C15.5635 -2.67355 -2.50948 11.4861 -2.50948 30H2.83761ZM36.7025 57.3265C17.4823 57.3265 2.83761 44.6231 2.83761 30H-2.50948C-2.50948 48.5139 15.5635 62.6735 36.7025 62.6735V57.3265ZM50.0695 34.8684C56.0718 34.8684 61.5357 32.5675 65.4441 28.815L61.7408 24.958C58.8351 27.7478 54.7009 29.5213 50.0695 29.5213V34.8684ZM28.6811 14.9997C28.6811 26.1815 38.4747 34.8684 50.0695 34.8684V29.5213C40.9925 29.5213 34.0282 22.8111 34.0282 14.9997H28.6811ZM30.4178 7.14308C29.3014 9.55142 28.6811 12.2095 28.6811 14.9997H34.0282C34.0282 13.0114 34.4685 11.1187 35.269 9.39183L30.4178 7.14308ZM12.6403 30.1496C12.6403 20.8154 21.1189 12.4238 33.1742 10.9205L32.5126 5.61446C18.6643 7.34136 7.29325 17.3134 7.29325 30.1496H12.6403ZM14.6745 37.9404C13.3587 35.5405 12.6403 32.9076 12.6403 30.1496H7.29325C7.29325 33.8601 8.26473 37.3719 9.98586 40.5111L14.6745 37.9404ZM18.433 34.6434C15.5143 34.6434 12.7632 35.5307 10.7073 37.1011L13.9531 41.3504C14.9779 40.5676 16.5565 39.9905 18.433 39.9905V34.6434ZM29.5728 43.5365C29.5728 40.7647 28.0379 38.4793 26.0024 36.984C23.9656 35.4877 21.2807 34.6434 18.433 34.6434V39.9905C20.2611 39.9905 21.8094 40.5385 22.8367 41.2932C23.8654 42.049 24.2257 42.8733 24.2257 43.5365H29.5728ZM23.6931 51.3924C26.8339 50.0638 29.5728 47.2827 29.5728 43.5365H24.2257C24.2257 44.4033 23.5464 45.6487 21.61 46.4678L23.6931 51.3924ZM36.9251 49.6102C32.0987 49.6102 27.626 48.4788 23.8727 46.5517L21.4304 51.3085C25.9556 53.6319 31.2678 54.9572 36.9251 54.9572V49.6102ZM61.2098 30.1496C61.2098 40.4285 50.8543 49.6102 36.9251 49.6102V54.9572C52.7731 54.9572 66.5569 44.3193 66.5569 30.1496H61.2098ZM60.9611 27.36C61.1249 28.2699 61.2098 29.2011 61.2098 30.1496H66.5569C66.5569 28.8808 66.4432 27.6328 66.2237 26.413L60.9611 27.36Z" fill="#EA4335" mask="url(#path-2-inside-1_70_1132)"/>
</svg>
