<svg width="400" height="60" viewBox="0 0 400 60" fill="none" xmlns="http://www.w3.org/2000/svg">
<path d="M65.6709 44.0212H103.704V53.3856C103.704 57.0387 100.743 60.0001 97.0897 60.0001H72.2854C68.6323 60.0001 65.6709 57.0387 65.6709 53.3856V44.0212Z" fill="#033EA9"/>
<path fill-rule="evenodd" clip-rule="evenodd" d="M75.5713 0.618096C66.5152 1.98844 58.5353 5.55944 52.6865 10.5471C52.6863 10.547 52.6867 10.5472 52.6865 10.5471C46.3554 15.9459 42.5205 23.0042 42.5205 30.7286V31.8007C42.5208 31.8002 42.5212 31.7998 42.5215 31.7993V32.9261C42.5215 33.1682 42.5215 33.2892 42.5248 33.3916C42.6718 37.983 47.6444 41.6791 53.8214 41.7884C53.9591 41.7908 54.1219 41.7908 54.4476 41.7908H113.276C113.602 41.7908 113.765 41.7908 113.903 41.7884C120.08 41.6791 125.052 37.983 125.199 33.3916C125.203 33.2892 125.203 33.1682 125.203 32.9261V30.7286C125.203 13.7577 106.694 0 83.862 0C81.0228 0 78.2495 0.212888 75.5713 0.618096C75.5713 0.618145 75.5713 0.618047 75.5713 0.618096ZM75.3662 3.16625C74.1339 8.35211 68.0414 12.2913 60.711 12.2913C58.9802 12.2913 57.3184 12.0717 55.7733 11.6679C60.9023 7.49426 67.6925 4.46769 75.3662 3.16625ZM95.8726 3.89683C97.4785 8.7176 103.338 12.2913 110.32 12.2913C111.078 12.2913 111.823 12.2492 112.551 12.1678C108.134 8.39939 102.396 5.50932 95.8726 3.89683ZM121.785 28.5571C119.165 26.848 115.731 25.8118 111.972 25.8118C103.752 25.8118 97.0891 30.7646 97.0891 36.8741C97.0891 37.7191 97.2166 38.5419 97.4579 39.3326H113.276C113.621 39.3326 113.736 39.3324 113.824 39.3308C118.236 39.2528 121.788 36.6127 121.893 33.3331C121.895 33.2674 121.895 33.1824 121.895 32.9261V30.7286C121.895 29.9979 121.858 29.2738 121.785 28.5571ZM70.2629 39.3326C70.5043 38.5419 70.6317 37.7191 70.6317 36.8741C70.6317 30.7646 63.9686 25.8118 55.7491 25.8118C51.9913 25.8118 48.5587 26.8471 45.9395 28.5548C45.8661 29.2723 45.8287 29.9972 45.8287 30.7286V32.9261C45.8287 33.1823 45.829 33.2674 45.8311 33.3331C45.9361 36.6127 49.4879 39.2528 53.9001 39.3308C53.9885 39.3324 54.1029 39.3326 54.4476 39.3326H70.2629ZM98.7439 20.8954C98.7439 27.0049 92.0807 31.9576 83.8613 31.9576C75.6419 31.9576 68.9787 27.0049 68.9787 20.8954C68.9787 14.7858 75.6419 9.83308 83.8613 9.83308C92.0807 9.83308 98.7439 14.7858 98.7439 20.8954Z" fill="#033EA9"/>
<path d="M149.918 46.0848V9.87891H158.577V46.0848H149.918Z" fill="#033EA9"/>
<path d="M180.347 46.6882C176.964 46.6882 173.965 46.1519 171.349 45.0791C168.734 44.0063 166.681 42.4977 165.193 40.5534C163.705 38.609 162.961 36.3629 162.961 33.815C162.961 31.2337 163.682 28.9373 165.125 26.9259C166.614 24.9144 168.643 23.3555 171.214 22.2493C173.83 21.1094 176.897 20.5395 180.415 20.5395C183.707 20.5395 186.616 21.0759 189.142 22.1487C191.668 23.2214 193.629 24.6965 195.028 26.5739C196.471 28.4177 197.192 30.4794 197.192 32.759C197.192 33.1278 197.17 33.5133 197.125 33.9156C197.125 34.3179 197.102 34.7369 197.057 35.1728H171.552C171.733 37.1171 172.635 38.6425 174.258 39.7488C175.927 40.8551 177.934 41.4082 180.279 41.4082C182.038 41.4082 183.504 41.1233 184.677 40.5534C185.895 39.9499 186.797 39.1789 187.383 38.2402H196.178C195.546 39.8158 194.486 41.2574 192.998 42.5648C191.555 43.8387 189.751 44.8444 187.586 45.5819C185.466 46.3195 183.053 46.6882 180.347 46.6882ZM180.415 25.7693C178.295 25.7693 176.423 26.2218 174.8 27.127C173.176 27.9986 172.139 29.3396 171.688 31.1499H188.398C188.262 29.5072 187.451 28.1998 185.962 27.2276C184.474 26.2554 182.625 25.7693 180.415 25.7693Z" fill="#033EA9"/>
<path d="M208.837 46.0848L196.524 21.143H205.59L214.114 40.0002L222.638 21.143H231.703L219.323 46.0848H208.837Z" fill="#033EA9"/>
<path d="M248.435 46.6882C245.053 46.6882 242.053 46.1519 239.437 45.0791C236.822 44.0063 234.769 42.4977 233.281 40.5534C231.793 38.609 231.049 36.3629 231.049 33.815C231.049 31.2337 231.77 28.9373 233.213 26.9259C234.702 24.9144 236.731 23.3555 239.302 22.2493C241.918 21.1094 244.985 20.5395 248.503 20.5395C251.795 20.5395 254.704 21.0759 257.23 22.1487C259.756 23.2214 261.717 24.6965 263.116 26.5739C264.559 28.4177 265.28 30.4794 265.28 32.759C265.28 33.1278 265.258 33.5133 265.213 33.9156C265.213 34.3179 265.19 34.7369 265.145 35.1728H239.64C239.821 37.1171 240.723 38.6425 242.346 39.7488C244.015 40.8551 246.022 41.4082 248.367 41.4082C250.126 41.4082 251.592 41.1233 252.765 40.5534C253.983 39.9499 254.885 39.1789 255.471 38.2402H264.266C263.634 39.8158 262.574 41.2574 261.086 42.5648C259.643 43.8387 257.839 44.8444 255.674 45.5819C253.554 46.3195 251.141 46.6882 248.435 46.6882ZM248.503 25.7693C246.383 25.7693 244.511 26.2218 242.888 27.127C241.264 27.9986 240.227 29.3396 239.776 31.1499H256.486C256.35 29.5072 255.539 28.1998 254.05 27.2276C252.562 26.2554 250.713 25.7693 248.503 25.7693Z" fill="#033EA9"/>
<path d="M269.181 46.0848V9.87891H277.84V46.0848H269.181Z" fill="#033EA9"/>
<path d="M295.889 46.6882C291.695 46.6882 288.448 45.716 286.147 43.7717C283.892 41.8273 282.765 38.9777 282.765 35.223V21.143H291.357V34.6196C291.357 36.7651 291.943 38.4078 293.116 39.5476C294.288 40.6874 296.137 41.2574 298.663 41.2574C301.053 41.2574 303.015 40.6204 304.549 39.3465C306.127 38.0726 306.917 36.2958 306.917 34.0162V21.143H315.576V46.0848H307.931L307.255 41.8608C306.217 43.3358 304.707 44.5092 302.722 45.3808C300.783 46.2524 298.505 46.6882 295.889 46.6882Z" fill="#033EA9"/>
<path d="M321.083 57.1477V21.143H328.795L329.742 24.7133C330.825 23.607 332.245 22.6348 334.004 21.7967C335.808 20.9586 338.131 20.5395 340.972 20.5395C344.13 20.5395 346.948 21.1094 349.429 22.2493C351.91 23.3891 353.871 24.9479 355.315 26.9259C356.758 28.9038 357.48 31.1499 357.48 33.6642C357.48 36.1785 356.758 38.4246 355.315 40.4025C353.871 42.3469 351.91 43.889 349.429 45.0288C346.948 46.1351 344.13 46.6882 340.972 46.6882C338.447 46.6882 336.237 46.3362 334.343 45.6322C332.448 44.9282 330.915 43.9393 329.742 42.6654V57.1477H321.083ZM339.146 41.0562C341.897 41.0562 344.175 40.369 345.979 38.9945C347.783 37.62 348.685 35.8432 348.685 33.6642C348.685 31.4851 347.783 29.6916 345.979 28.2836C344.175 26.8756 341.897 26.1716 339.146 26.1716C336.35 26.1716 334.049 26.8756 332.245 28.2836C330.486 29.6581 329.607 31.4348 329.607 33.6139C329.607 35.7929 330.486 37.5865 332.245 38.9945C334.049 40.369 336.35 41.0562 339.146 41.0562Z" fill="#033EA9"/>
</svg>
