<svg width="326" height="6" viewBox="0 0 326 6" fill="none" xmlns="http://www.w3.org/2000/svg">
<path fill-rule="evenodd" clip-rule="evenodd" d="M7.49402 4.96881C14.4034 4.64934 32.5617 4.63336 81.8547 4.60142C158.827 4.5535 219.917 4.20209 236.895 3.69094C238.243 3.64302 130.347 3.29161 119.267 3.54718C101.993 3.96249 19.5012 3.61107 2.90174 3.13187C-1.81689 3.00409 -0.0473825 2.55683 3.02815 2.46099C7.83102 2.30126 20.7231 2.31723 56.0707 2.34918C80.9278 2.36515 278.689 1.99776 300.302 1.34286C312.435 0.97547 319.808 0.64003 323.179 0.719897C326.001 0.783791 326.044 0.97547 323.6 1.50259C321.957 1.854 323.811 2.06166 324.99 2.1575C326.802 2.31723 326.043 2.86033 323.768 3.29161C320.693 3.88262 315.384 3.86665 317.912 3.27563C318.46 3.14785 318.586 2.82838 316.648 2.89227C311.003 3.08395 271.105 4.39377 260.278 4.61739C144.671 7.04534 31.8455 5.2723 7.95741 5.86332C-0.510838 6.08694 3.36523 5.16049 7.49402 4.96881Z" fill="#F39C12"/>
</svg>
