<svg width="68" height="68" viewBox="0 0 68 68" fill="none" xmlns="http://www.w3.org/2000/svg">
<path d="M50.2003 52.5784C41.7526 60.7578 30.9789 64.5544 21.5566 63.608C29.4631 62.6022 36.8158 59.0125 42.4716 53.3969C55.104 41.1656 58.4742 21.7213 47.345 12.855C40.8963 7.71762 36.3842 10.893 26.5768 14.1274C37.7488 2.65263 47.9676 1.64762 55.6964 9.76731C66.4111 21.0239 63.639 39.5664 50.2003 52.5784Z" fill="#D35400"/>
<path d="M11.5528 9.37656C18.23 4.50622 26.2925 7.71956 34.4302 19.7634C26.8404 14.8133 23.4586 11.1486 17.9942 13.866C8.56355 18.5559 9.9759 35.3296 19.2259 48.3365C23.2141 54.1592 28.7435 58.7576 35.1957 61.6174C27.6394 60.1946 19.3176 54.5565 13.1319 45.8583C3.29148 32.0211 2.29608 16.1285 11.5528 9.37656Z" fill="#D35400"/>
<path d="M36.125 25.5V42.5H31.875V25.5H36.125Z" fill="#F39C12"/>
<path d="M42.5 31.875V36.125H25.5V31.875H42.5Z" fill="#F39C12"/>
</svg>
