<svg width="24" height="24" viewBox="0 0 24 24" fill="none" xmlns="http://www.w3.org/2000/svg">
<path fill-rule="evenodd" clip-rule="evenodd" d="M8.76814 10.9206L6.49309 13.8569C7.87732 15.2236 9.55748 16.4138 11.4663 17.3674L13.9661 14.8121C14.9274 13.8296 16.349 13.4517 17.6711 13.8273L20.5247 14.6381C22.1374 15.0963 23.25 16.5694 23.25 18.246V20.6252C23.25 21.0393 22.9142 21.3752 22.5 21.3752C18.4125 21.3752 14.5811 20.4946 11.3062 18.9564C8.44537 17.6128 6.00064 15.7631 4.18474 13.551C2.02182 10.916 0.75 7.76333 0.75 4.36354C0.75 4.04801 0.947498 3.7662 1.2441 3.65855L3.46965 2.85071C5.29249 2.18905 7.31891 3.02652 8.1432 4.78189L9.1983 7.02866C9.7971 8.30381 9.63097 9.80708 8.76814 10.9206Z" fill="#D35400"/>
</svg>
