<svg width="24" height="24" viewBox="0 0 24 24" fill="none" xmlns="http://www.w3.org/2000/svg">
<path fill-rule="evenodd" clip-rule="evenodd" d="M12.0008 0.258789C15.9968 0.258789 19.2369 3.49884 19.2369 7.4949C19.2369 11.4595 14.3813 17.5154 12.0008 20.436C9.62022 17.5166 4.76465 11.4595 4.76465 7.4949C4.76465 3.49884 8.0047 0.258789 12.0008 0.258789ZM16.3636 16.6345C18.3177 18.3344 18.1962 20.9569 15.9957 22.5409C13.7704 24.1429 10.2311 24.1429 8.00582 22.5409C5.80529 20.9569 5.68379 18.3344 7.63794 16.6345C7.85957 16.9495 8.08233 17.2601 8.3062 17.5638C6.98881 18.78 7.11031 20.4934 8.67071 21.6172C10.4921 22.9279 13.5094 22.9279 15.3297 21.6172C16.8901 20.4934 17.0116 18.78 15.6942 17.5638C15.9169 17.2601 16.1408 16.9495 16.3625 16.6345H16.3636ZM12.0008 3.43921C14.2407 3.43921 16.0564 5.25499 16.0564 7.4949C16.0564 9.73481 14.2407 11.5506 12.0008 11.5506C9.76085 11.5506 7.94507 9.73481 7.94507 7.4949C7.94507 5.25499 9.76085 3.43921 12.0008 3.43921Z" fill="#D35400"/>
</svg>
