<svg width="22" height="22" viewBox="0 0 22 22" fill="none" xmlns="http://www.w3.org/2000/svg">
<path d="M11.1904 0.5C5.49711 0.5 0.881281 5.07973 0.881281 10.7296C0.881281 12.6623 1.42184 14.4698 2.36061 16.0118L0.5 21.5L6.20769 19.6868C7.68463 20.497 9.38323 20.9592 11.1904 20.9592C16.8845 20.9592 21.5 16.3789 21.5 10.7296C21.5 5.07973 16.8845 0.5 11.1904 0.5ZM16.3168 14.6145C16.0742 15.2158 14.9773 15.7645 14.4934 15.7898C14.0099 15.8154 13.9961 16.1645 11.3602 15.0194C8.72469 13.8741 7.13905 11.0893 7.01403 10.9099C6.88892 10.7312 5.99309 9.45458 6.04142 8.16983C6.09008 6.88484 6.79362 6.27861 7.04473 6.02647C7.29556 5.77395 7.58314 5.72872 7.75873 5.72586C7.9663 5.72248 8.10073 5.71967 8.25434 5.72534C8.40781 5.73116 8.63834 5.69323 8.83794 6.22405C9.03744 6.75481 9.51495 8.05934 9.57603 8.19228C9.63706 8.32536 9.67484 8.47944 9.58081 8.6503C9.4865 8.82153 9.43822 8.9285 9.30139 9.07606C9.16381 9.22362 9.01198 9.40616 8.88927 9.51898C8.75239 9.64391 8.60942 9.78017 8.75333 10.0472C8.89714 10.3141 9.39331 11.1889 10.1492 11.9098C11.1207 12.8366 11.9585 13.144 12.2163 13.2841C12.4748 13.4249 12.6291 13.4092 12.7894 13.2405C12.949 13.0718 13.4756 12.5024 13.6611 12.2482C13.8465 11.9933 14.0202 12.0432 14.2584 12.1391C14.4964 12.2352 15.7657 12.9151 16.0243 13.0555C16.2826 13.1956 16.4552 13.2678 16.517 13.379C16.5787 13.4905 16.5592 14.0132 16.3168 14.6145Z" fill="#D35400"/>
</svg>
